<!-- icon666.com - MILLIONS vector ICONS FREE --><svg id="Solid" viewBox="0 0 64 64" xmlns="http://www.w3.org/2000/svg"><path d="m60 33a1.0013 1.0013 0 0 0 1 1h1.9912a5.9526 5.9526 0 0 0 -.3779-2h-1.6133a1.0013 1.0013 0 0 0 -1 1z"></path><path d="m4 32a1.0013 1.0013 0 0 0 -1-1h-2v2h2a1.0013 1.0013 0 0 0 1-1z"></path><circle cx="52" cy="42" r="1"></circle><path d="m52 36a6 6 0 1 0 6 6 6 6 0 0 0 -6-6zm0 9a3 3 0 1 1 3-3 3.0033 3.0033 0 0 1 -3 3z"></path><circle cx="12" cy="42" r="1"></circle><path d="m12 36a6 6 0 1 0 6 6 6 6 0 0 0 -6-6zm0 9a3 3 0 1 1 3-3 3.0033 3.0033 0 0 1 -3 3z"></path><path d="m7 24a2.002 2.002 0 0 0 2 2h8v-10h-10z"></path><path d="m35 23.103a2.0019 2.0019 0 0 0 2 2h14.342l-4.0246-6.3247a5.9735 5.9735 0 0 0 -5.062-2.7783h-7.2554z"></path><path d="m29 24v-8h-10v10h8a2.002 2.002 0 0 0 2-2z"></path><path d="m61 36a3 3 0 0 1 0-6h.3469a5.9584 5.9584 0 0 0 -3.17-1.7842l-5.5622-1.1128h-15.6147a4.0045 4.0045 0 0 1 -4-4v-7.103h-2v8a4.0045 4.0045 0 0 1 -4 4h-18a4.0045 4.0045 0 0 1 -4-4v-8h-1a3.0033 3.0033 0 0 0 -3 3v10h2a3 3 0 0 1 0 6h-2v4a3.0033 3.0033 0 0 0 3 3 8 8 0 0 1 16 0h24a8 8 0 0 1 16 0 3.0033 3.0033 0 0 0 3-3v-3zm-36-3h-2a1 1 0 0 1 0-2h2a1 1 0 0 1 0 2zm14 0h-2a1 1 0 0 1 0-2h2a1 1 0 0 1 0 2z"></path></svg>