<!-- icon666.com - MILLIONS vector ICONS FREE --><svg id="Layer_2" enable-background="new 0 0 32 32" viewBox="0 0 32 32" xmlns="http://www.w3.org/2000/svg"><g><path d="m2.39001 5.59998h1.75l2.37 25.42999c.04999.54999.51001.97003 1.06.97003h16.85999c.55005 0 1.01001-.42004 1.06-.97003l2.37-25.42999h1.75c.59003 0 1.07001-.47998 1.07001-1.07001 0-.58997-.47998-1.06-1.07001-1.06h-27.21999c-.59003 0-1.07001.47003-1.07001 1.06.00001.59003.47999 1.07001 1.07001 1.07001z" fill="#000000" style="fill: rgb(236, 231, 214);"></path><path d="m8.39844 2.1333h15.20313c.58905 0 1.06671-.4776 1.06671-1.06665s-.47767-1.06665-1.06672-1.06665h-15.20312c-.58905 0-1.06665.4776-1.06665 1.06665s.4776 1.06665 1.06665 1.06665z" fill="#000000" style="fill: rgb(236, 231, 214);"></path></g></svg>