<!-- icon666.com - MILLIONS vector ICONS FREE --><svg version="1.1" id="Layer_1" xmlns="http://www.w3.org/2000/svg" xmlns:xlink="http://www.w3.org/1999/xlink" x="0px" y="0px" viewBox="0 0 512.001 512.001" style="enable-background:new 0 0 512.001 512.001;" xml:space="preserve"><path id="SVGCleanerId_0" style="fill: rgb(236, 231, 214);" d="M75.394,161.939c-3.435,0-6.589,2.019-7.925,5.185 c-13.391,31.741-20.971,67.77-20.971,105.979c0,127.511,84.226,230.88,188.124,230.88s188.124-103.369,188.124-230.88 c0-38.21-7.579-74.239-20.971-105.979c-1.335-3.165-4.488-5.185-7.925-5.185L75.394,161.939L75.394,161.939z" fill="#9B735A"></path><polygon style="fill: rgb(111, 148, 127);" points="108.141,25.121 40.798,120.215 220.853,54.68 " fill="#00AAF0"></polygon><polygon style="fill: rgb(111, 148, 127);" points="108.141,25.121 40.798,120.215 99.662,98.79 " fill="#0096DC"></polygon><circle style="" cx="291.925" cy="75.25" r="25.653" fill="#FF507D"></circle><path style="" d="M301.622,91.513c-13.058-5.498-19.186-20.54-13.688-33.598c1.331-3.16,3.24-5.892,5.524-8.173 c-10.558-0.633-20.842,5.248-25.18,15.551c-5.498,13.058,0.631,28.1,13.688,33.598c9.898,4.168,20.916,1.632,28.073-5.514 C307.217,93.207,304.377,92.673,301.622,91.513z" fill="#D23C69"></path><g><path id="SVGCleanerId_0_1_" style="fill: rgb(236, 231, 214);" d="M75.394,161.939c-3.435,0-6.589,2.019-7.925,5.185 c-13.391,31.741-20.971,67.77-20.971,105.979c0,127.511,84.226,230.88,188.124,230.88s188.124-103.369,188.124-230.88 c0-38.21-7.579-74.239-20.971-105.979c-1.335-3.165-4.488-5.185-7.925-5.185L75.394,161.939L75.394,161.939z" fill="#9B735A"></path></g><path style="fill: rgb(111, 98, 83);" d="M166.214,273.103c0-38.211,5.34-74.24,14.775-105.979c0.941-3.165,3.162-5.185,5.583-5.185H75.394 c-3.435,0-6.589,2.019-7.925,5.185c-13.391,31.741-20.971,67.77-20.971,105.979c0,127.511,84.226,230.88,188.124,230.88 c12.887,0,25.467-1.598,37.625-4.627C211.751,477.963,166.214,384.8,166.214,273.103z" fill="#8C5F50"></path><path d="M359.193,388.819c1.182,0.616,2.448,0.906,3.694,0.906c2.895,0,5.69-1.572,7.119-4.318 c17.373-33.39,26.555-72.224,26.555-112.305c0-5.863-0.205-11.803-0.609-17.655c-0.305-4.417-4.143-7.757-8.55-7.445 c-4.417,0.305-7.749,4.133-7.445,8.55c0.378,5.486,0.571,11.053,0.571,16.55c0,37.515-8.556,73.791-24.745,104.904 C353.738,381.936,355.266,386.777,359.193,388.819z" fill="#000000"></path><path d="M375.332,223.459c0.801,3.769,4.129,6.351,7.834,6.351c0.553,0,1.113-0.058,1.674-0.177c4.331-0.92,7.095-5.177,6.175-9.508 c-1.261-5.933-2.752-11.865-4.433-17.628c-1.239-4.251-5.689-6.689-9.94-5.452c-4.251,1.239-6.691,5.69-5.452,9.94 C372.759,212.37,374.153,217.912,375.332,223.459z" fill="#000000"></path><path d="M175.856,445.729c-36.761-21.055-65.508-61.169-78.868-110.056c-1.167-4.271-5.573-6.786-9.847-5.62 c-4.271,1.167-6.787,5.575-5.62,9.847c14.472,52.95,45.95,96.594,86.366,119.743c1.257,0.719,2.626,1.061,3.977,1.061 c2.78,0,5.482-1.448,6.964-4.034C181.028,452.827,179.697,447.93,175.856,445.729z" fill="#000000"></path><path d="M482.606,68.411h-91.034c-10.331,0-19.485,6.197-23.322,15.79l-27.888,69.721h-72.867l19.123-45.418 c1.758,0.283,3.529,0.432,5.303,0.432c4.3,0,8.603-0.835,12.706-2.507c8.329-3.394,14.838-9.827,18.327-18.117l0,0 c3.491-8.289,3.543-17.441,0.151-25.77c-2.36-5.793-6.195-10.704-11.1-14.333l3.898-9.258c1.718-4.081-0.197-8.781-4.277-10.5 c-4.082-1.72-8.782,0.198-10.5,4.277l-3.903,9.269c-14.954-2.384-30.199,5.617-36.332,20.181c-6.132,14.565-1.2,31.059,10.954,40.09 l-21.747,51.65h-86.777l-22.11-60.742l19.957-7.266l10.278,9.731c3.214,3.044,8.288,2.905,11.333-0.31 c3.044-3.215,2.905-8.288-0.31-11.333l-4.458-4.221l46.171-16.809l12.102,3.174c4.283,1.12,8.664-1.439,9.788-5.722 c1.123-4.282-1.439-8.664-5.721-9.788l-126.72-33.232L109.22,5.277c-1.515-4.161-6.117-6.305-10.275-4.792 C94.784,2,92.64,6.6,94.153,10.761l4.412,12.124l-75.71,106.911c-2.559,3.613-1.704,8.617,1.909,11.175 c1.407,0.996,3.025,1.475,4.626,1.475c2.513,0,4.986-1.178,6.549-3.384l7.213-10.184l46.19-16.817l-0.701,6.089 c-0.507,4.398,2.649,8.374,7.047,8.88c0.312,0.036,0.621,0.053,0.927,0.053c4.017,0,7.483-3.013,7.954-7.101l1.617-14.055 l19.959-7.266l20.113,55.26H75.394c-6.716,0-12.725,3.959-15.311,10.086c-14.334,33.975-21.601,70.68-21.601,109.095 c0,63.51,20.208,123.287,56.902,168.321c37.083,45.511,86.533,70.576,139.239,70.576s102.156-25.064,139.239-70.576 c36.694-45.033,56.902-104.811,56.902-168.321c0-38.415-7.267-75.12-21.601-109.096c-2.585-6.126-8.595-10.085-15.311-10.085 h-36.225l25.507-63.767c1.387-3.47,4.699-5.711,8.436-5.711h91.034c4.427,0,8.017-3.589,8.017-8.017S487.033,68.411,482.606,68.411z M275.667,68.404c2.836-6.735,9.391-10.793,16.278-10.793c2.278,0,4.593,0.445,6.821,1.382c4.342,1.828,7.711,5.238,9.489,9.6 c1.778,4.363,1.75,9.156-0.079,13.498l0,0c-1.828,4.342-5.238,7.711-9.6,9.489c-4.363,1.778-9.156,1.749-13.498-0.079 C276.114,87.728,271.893,77.366,275.667,68.404z M164.988,67.447l-29.219-27.665l61.16,16.04L164.988,67.447z M59.454,105.859 L95.995,54.26l-4.602,39.973L59.454,105.859z M113.667,40.935l34.477,32.643l-39.905,14.524L113.667,40.935z M394.391,170.24 c13.497,31.992,20.34,66.6,20.34,102.863c0,122.887-80.796,222.863-180.108,222.863S54.516,395.99,54.516,273.103 c0-36.263,6.843-70.872,20.34-102.863c0.068-0.162,0.299-0.284,0.538-0.284h318.459C394.092,169.956,394.323,170.077,394.391,170.24 z" fill="#000000"></path></svg>