<!-- icon666.com - MILLIONS vector ICONS FREE --><svg id="Capa_1" enable-background="new 0 0 512 512" viewBox="0 0 512 512" xmlns="http://www.w3.org/2000/svg"><g><g><path d="m410.107 68.549h-378.668v.016c-13.325.358-24.084 27.845-24.084 61.718s10.759 61.36 24.084 61.717v.016h378.668c13.445 0 24.345-27.639 24.345-61.733 0-34.095-10.9-61.734-24.345-61.734z" fill="#eaa895" style="fill: rgb(111, 148, 127);"></path><path d="m272.499 47.197h-103.192c-9.187 0-16.635 7.448-16.635 16.635v43.315c0 9.187 7.448 16.635 16.635 16.635h18.107c-6.206 0-11.237-5.031-11.237-11.237v-30.837c0-6.206 5.031-11.237 11.237-11.237h66.978c6.206 0 11.237 5.031 11.237 11.237v30.838c0 6.206-5.031 11.237-11.237 11.237h18.107c9.187 0 16.635-7.448 16.635-16.635v-43.316c0-9.187-7.448-16.635-16.635-16.635z" fill="#e9c278" style="fill: rgb(236, 231, 214);"></path><path d="m392.604 284.777h-16.468l5.619-112.389c.929-18.575-13.882-34.144-32.48-34.144h-256.744c-18.533 0-33.32 15.466-32.488 33.981l5.058 112.552h-17.646c-9.666 0-17.502 7.836-17.502 17.502v18.565c0 6.973 4.088 12.976 9.99 15.79v85.369c0 10.604 8.596 19.2 19.2 19.2h5.077c-.197 2.414-.4 4.828-.615 7.242l-1.426 15.989c-1.971 23.466 16.544 43.6 40.092 43.6h235.526c24.232 0 42.965-21.263 39.913-45.302l-1.29-16.037c-.147-1.83-.282-3.661-.419-5.492h4.916c10.604 0 19.2-8.596 19.2-19.2v-85.369c5.901-2.814 9.99-8.816 9.99-15.79v-18.565c0-9.666-7.837-17.502-17.503-17.502z" fill="#e9c278" style="fill: rgb(236, 231, 214);"></path><g fill="#f9fbfc"><path d="m375.681 154.799c-1.954 0-3.538 1.584-3.538 3.538s1.584 3.538 3.538 3.538 3.538-1.584 3.538-3.538c0-.12-.023-.232-.035-.349-.317-.741-.663-1.467-1.033-2.179-.638-.623-1.507-1.01-2.47-1.01z" fill="#f9fbfc" style="fill: rgb(236, 231, 214);"></path><circle cx="375.681" cy="181.146" r="3.538" fill="#f9fbfc" style="fill: rgb(236, 231, 214);"></circle><circle cx="375.681" cy="203.954" r="3.538" fill="#f9fbfc" style="fill: rgb(236, 231, 214);"></circle><path d="m375.681 223.225c-1.954 0-3.538 1.584-3.538 3.538s1.584 3.538 3.538 3.538c1.503 0 2.778-.941 3.291-2.262l.11-2.198c-.407-1.504-1.768-2.616-3.401-2.616z" fill="#f9fbfc" style="fill: rgb(236, 231, 214);"></path><path d="m372.144 249.572c0 1.954 1.584 3.538 3.538 3.538.776 0 1.488-.258 2.072-.682l.274-5.486c-.625-.559-1.442-.908-2.346-.908-1.955-.001-3.538 1.583-3.538 3.538z" fill="#f9fbfc" style="fill: rgb(236, 231, 214);"></path><path d="m364.706 142.965c-1.954 0-3.538 1.584-3.538 3.538s1.584 3.538 3.538 3.538 3.538-1.584 3.538-3.538-1.584-3.538-3.538-3.538z" fill="#f9fbfc" style="fill: rgb(236, 231, 214);"></path><path d="m364.706 165.774c-1.954 0-3.538 1.584-3.538 3.538s1.584 3.538 3.538 3.538 3.538-1.584 3.538-3.538-1.584-3.538-3.538-3.538z" fill="#f9fbfc" style="fill: rgb(236, 231, 214);"></path><path d="m364.706 188.583c-1.954 0-3.538 1.584-3.538 3.538s1.584 3.538 3.538 3.538 3.538-1.584 3.538-3.538-1.584-3.538-3.538-3.538z" fill="#f9fbfc" style="fill: rgb(236, 231, 214);"></path><path d="m364.706 211.391c-1.954 0-3.538 1.584-3.538 3.538s1.584 3.538 3.538 3.538 3.538-1.584 3.538-3.538-1.584-3.538-3.538-3.538z" fill="#f9fbfc" style="fill: rgb(236, 231, 214);"></path><path d="m364.706 234.2c-1.954 0-3.538 1.584-3.538 3.538s1.584 3.538 3.538 3.538 3.538-1.584 3.538-3.538-1.584-3.538-3.538-3.538z" fill="#f9fbfc" style="fill: rgb(236, 231, 214);"></path><path d="m364.706 257.009c-1.954 0-3.538 1.584-3.538 3.538s1.584 3.538 3.538 3.538 3.538-1.583 3.538-3.538-1.584-3.538-3.538-3.538z" fill="#f9fbfc" style="fill: rgb(236, 231, 214);"></path><path d="m352.873 268.842c-1.954 0-3.538 1.584-3.538 3.538s1.584 3.538 3.538 3.538 3.538-1.584 3.538-3.538-1.584-3.538-3.538-3.538z" fill="#f9fbfc" style="fill: rgb(236, 231, 214);"></path><path d="m364.706 279.817c-1.954 0-3.538 1.584-3.538 3.538s1.584 3.538 3.538 3.538 3.538-1.583 3.538-3.538-1.584-3.538-3.538-3.538z" fill="#f9fbfc" style="fill: rgb(236, 231, 214);"></path><path d="m352.873 291.651c-1.954 0-3.538 1.583-3.538 3.538s1.584 3.538 3.538 3.538 3.538-1.584 3.538-3.538-1.584-3.538-3.538-3.538z" fill="#f9fbfc" style="fill: rgb(236, 231, 214);"></path><path d="m364.706 302.626c-1.954 0-3.538 1.584-3.538 3.538s1.584 3.538 3.538 3.538 3.538-1.583 3.538-3.538-1.584-3.538-3.538-3.538z" fill="#f9fbfc" style="fill: rgb(236, 231, 214);"></path><path d="m352.873 314.46c-1.954 0-3.538 1.584-3.538 3.538s1.584 3.538 3.538 3.538 3.538-1.584 3.538-3.538-1.584-3.538-3.538-3.538z" fill="#f9fbfc" style="fill: rgb(236, 231, 214);"></path><path d="m364.706 325.434c-1.954 0-3.538 1.584-3.538 3.538s1.584 3.538 3.538 3.538 3.538-1.583 3.538-3.538-1.584-3.538-3.538-3.538z" fill="#f9fbfc" style="fill: rgb(236, 231, 214);"></path><path d="m352.873 337.268c-1.954 0-3.538 1.584-3.538 3.538s1.584 3.538 3.538 3.538 3.538-1.584 3.538-3.538-1.584-3.538-3.538-3.538z" fill="#f9fbfc" style="fill: rgb(236, 231, 214);"></path><path d="m364.706 348.243c-1.954 0-3.538 1.584-3.538 3.538s1.584 3.538 3.538 3.538 3.538-1.583 3.538-3.538-1.584-3.538-3.538-3.538z" fill="#f9fbfc" style="fill: rgb(236, 231, 214);"></path><path d="m352.873 360.077c-1.954 0-3.538 1.584-3.538 3.538s1.584 3.538 3.538 3.538 3.538-1.584 3.538-3.538-1.584-3.538-3.538-3.538z" fill="#f9fbfc" style="fill: rgb(236, 231, 214);"></path><path d="m364.706 371.052c-1.954 0-3.538 1.584-3.538 3.538s1.584 3.538 3.538 3.538 3.538-1.583 3.538-3.538-1.584-3.538-3.538-3.538z" fill="#f9fbfc" style="fill: rgb(236, 231, 214);"></path><path d="m352.873 382.885c-1.954 0-3.538 1.584-3.538 3.538s1.584 3.538 3.538 3.538 3.538-1.584 3.538-3.538c0-1.953-1.584-3.538-3.538-3.538z" fill="#f9fbfc" style="fill: rgb(236, 231, 214);"></path><path d="m364.706 393.86c-1.954 0-3.538 1.584-3.538 3.538s1.584 3.538 3.538 3.538 3.538-1.583 3.538-3.538-1.584-3.538-3.538-3.538z" fill="#f9fbfc" style="fill: rgb(236, 231, 214);"></path><path d="m352.873 405.694c-1.954 0-3.538 1.584-3.538 3.538s1.584 3.538 3.538 3.538 3.538-1.584 3.538-3.538-1.584-3.538-3.538-3.538z" fill="#f9fbfc" style="fill: rgb(236, 231, 214);"></path><path d="m364.706 416.669c-1.954 0-3.538 1.584-3.538 3.538s1.584 3.538 3.538 3.538 3.538-1.584 3.538-3.538-1.584-3.538-3.538-3.538z" fill="#f9fbfc" style="fill: rgb(236, 231, 214);"></path><path d="m352.873 428.503c-1.954 0-3.538 1.584-3.538 3.538s1.584 3.538 3.538 3.538 3.538-1.584 3.538-3.538-1.584-3.538-3.538-3.538z" fill="#f9fbfc" style="fill: rgb(236, 231, 214);"></path><path d="m364.706 439.477c-1.954 0-3.538 1.584-3.538 3.538s1.584 3.538 3.538 3.538 3.538-1.584 3.538-3.538-1.584-3.538-3.538-3.538z" fill="#f9fbfc" style="fill: rgb(236, 231, 214);"></path><path d="m352.873 451.311c-1.954 0-3.538 1.584-3.538 3.537 0 1.954 1.584 3.538 3.538 3.538s3.538-1.584 3.538-3.538c0-1.953-1.584-3.537-3.538-3.537z" fill="#f9fbfc" style="fill: rgb(236, 231, 214);"></path><path d="m364.706 462.286c-1.954 0-3.538 1.584-3.538 3.538s1.584 3.538 3.538 3.538 3.538-1.584 3.538-3.538-1.584-3.538-3.538-3.538z" fill="#f9fbfc" style="fill: rgb(236, 231, 214);"></path><path d="m352.873 474.12c-1.954 0-3.538 1.584-3.538 3.538s1.584 3.538 3.538 3.538 3.538-1.584 3.538-3.538-1.584-3.538-3.538-3.538z" fill="#f9fbfc" style="fill: rgb(236, 231, 214);"></path><path d="m364.706 485.095c-1.954 0-3.538 1.584-3.538 3.538s1.584 3.538 3.538 3.538 3.538-1.584 3.538-3.538-1.584-3.538-3.538-3.538z" fill="#f9fbfc" style="fill: rgb(236, 231, 214);"></path><path d="m352.873 504.004c1.954 0 3.538-1.584 3.538-3.538s-1.584-3.538-3.538-3.538-3.538 1.584-3.538 3.538 1.584 3.538 3.538 3.538z" fill="#f9fbfc" style="fill: rgb(236, 231, 214);"></path><path d="m341.898 257.009c-1.954 0-3.538 1.584-3.538 3.538s1.584 3.538 3.538 3.538 3.538-1.583 3.538-3.538-1.584-3.538-3.538-3.538z" fill="#f9fbfc" style="fill: rgb(236, 231, 214);"></path><path d="m330.064 268.842c-1.954 0-3.538 1.584-3.538 3.538s1.584 3.538 3.538 3.538 3.538-1.584 3.538-3.538-1.584-3.538-3.538-3.538z" fill="#f9fbfc" style="fill: rgb(236, 231, 214);"></path><path d="m341.898 279.817c-1.954 0-3.538 1.584-3.538 3.538s1.584 3.538 3.538 3.538 3.538-1.583 3.538-3.538-1.584-3.538-3.538-3.538z" fill="#f9fbfc" style="fill: rgb(236, 231, 214);"></path><path d="m330.064 291.651c-1.954 0-3.538 1.583-3.538 3.538s1.584 3.538 3.538 3.538 3.538-1.584 3.538-3.538-1.584-3.538-3.538-3.538z" fill="#f9fbfc" style="fill: rgb(236, 231, 214);"></path><path d="m341.898 302.626c-1.954 0-3.538 1.584-3.538 3.538s1.584 3.538 3.538 3.538 3.538-1.583 3.538-3.538-1.584-3.538-3.538-3.538z" fill="#f9fbfc" style="fill: rgb(236, 231, 214);"></path><path d="m330.064 314.46c-1.954 0-3.538 1.584-3.538 3.538s1.584 3.538 3.538 3.538 3.538-1.584 3.538-3.538-1.584-3.538-3.538-3.538z" fill="#f9fbfc" style="fill: rgb(236, 231, 214);"></path><path d="m341.898 325.434c-1.954 0-3.538 1.584-3.538 3.538s1.584 3.538 3.538 3.538 3.538-1.583 3.538-3.538-1.584-3.538-3.538-3.538z" fill="#f9fbfc" style="fill: rgb(236, 231, 214);"></path><path d="m330.064 337.268c-1.954 0-3.538 1.584-3.538 3.538s1.584 3.538 3.538 3.538 3.538-1.584 3.538-3.538-1.584-3.538-3.538-3.538z" fill="#f9fbfc" style="fill: rgb(236, 231, 214);"></path><path d="m341.898 348.243c-1.954 0-3.538 1.584-3.538 3.538s1.584 3.538 3.538 3.538 3.538-1.583 3.538-3.538-1.584-3.538-3.538-3.538z" fill="#f9fbfc" style="fill: rgb(236, 231, 214);"></path><path d="m330.064 367.153c1.954 0 3.538-1.584 3.538-3.538s-1.584-3.538-3.538-3.538-3.538 1.584-3.538 3.538 1.584 3.538 3.538 3.538z" fill="#f9fbfc" style="fill: rgb(236, 231, 214);"></path><path d="m330.064 389.961c1.954 0 3.538-1.584 3.538-3.538s-1.584-3.538-3.538-3.538-3.538 1.584-3.538 3.538 1.584 3.538 3.538 3.538z" fill="#f9fbfc" style="fill: rgb(236, 231, 214);"></path><path d="m330.064 412.77c1.954 0 3.538-1.584 3.538-3.538s-1.584-3.538-3.538-3.538-3.538 1.584-3.538 3.538 1.584 3.538 3.538 3.538z" fill="#f9fbfc" style="fill: rgb(236, 231, 214);"></path><path d="m330.064 435.578c1.954 0 3.538-1.584 3.538-3.538s-1.584-3.538-3.538-3.538-3.538 1.584-3.538 3.538 1.584 3.538 3.538 3.538z" fill="#f9fbfc" style="fill: rgb(236, 231, 214);"></path><path d="m341.898 371.052c-1.954 0-3.538 1.584-3.538 3.538s1.584 3.538 3.538 3.538 3.538-1.583 3.538-3.538-1.584-3.538-3.538-3.538z" fill="#f9fbfc" style="fill: rgb(236, 231, 214);"></path><path d="m341.898 393.86c-1.954 0-3.538 1.584-3.538 3.538s1.584 3.538 3.538 3.538 3.538-1.583 3.538-3.538-1.584-3.538-3.538-3.538z" fill="#f9fbfc" style="fill: rgb(236, 231, 214);"></path><path d="m341.898 416.669c-1.954 0-3.538 1.584-3.538 3.538s1.584 3.538 3.538 3.538 3.538-1.584 3.538-3.538-1.584-3.538-3.538-3.538z" fill="#f9fbfc" style="fill: rgb(236, 231, 214);"></path><path d="m341.898 439.477c-1.954 0-3.538 1.584-3.538 3.538s1.584 3.538 3.538 3.538 3.538-1.584 3.538-3.538-1.584-3.538-3.538-3.538z" fill="#f9fbfc" style="fill: rgb(236, 231, 214);"></path><path d="m330.064 451.311c-1.954 0-3.538 1.584-3.538 3.537 0 1.954 1.584 3.538 3.538 3.538s3.538-1.584 3.538-3.538c0-1.953-1.584-3.537-3.538-3.537z" fill="#f9fbfc" style="fill: rgb(236, 231, 214);"></path><path d="m341.898 462.286c-1.954 0-3.538 1.584-3.538 3.538s1.584 3.538 3.538 3.538 3.538-1.584 3.538-3.538-1.584-3.538-3.538-3.538z" fill="#f9fbfc" style="fill: rgb(236, 231, 214);"></path><path d="m330.064 474.12c-1.954 0-3.538 1.584-3.538 3.538s1.584 3.538 3.538 3.538 3.538-1.584 3.538-3.538-1.584-3.538-3.538-3.538z" fill="#f9fbfc" style="fill: rgb(236, 231, 214);"></path><path d="m341.898 492.171c1.954 0 3.538-1.584 3.538-3.538s-1.584-3.538-3.538-3.538-3.538 1.584-3.538 3.538 1.584 3.538 3.538 3.538z" fill="#f9fbfc" style="fill: rgb(236, 231, 214);"></path><path d="m330.064 496.928c-1.954 0-3.538 1.584-3.538 3.538s1.584 3.538 3.538 3.538 3.538-1.584 3.538-3.538-1.584-3.538-3.538-3.538z" fill="#f9fbfc" style="fill: rgb(236, 231, 214);"></path><path d="m319.089 462.286c-1.954 0-3.538 1.584-3.538 3.538s1.584 3.538 3.538 3.538 3.538-1.584 3.538-3.538-1.584-3.538-3.538-3.538z" fill="#f9fbfc" style="fill: rgb(236, 231, 214);"></path><path d="m307.256 474.12c-1.954 0-3.538 1.584-3.538 3.538s1.584 3.538 3.538 3.538 3.538-1.584 3.538-3.538c-.001-1.954-1.585-3.538-3.538-3.538z" fill="#f9fbfc" style="fill: rgb(236, 231, 214);"></path><path d="m319.089 485.095c-1.954 0-3.538 1.584-3.538 3.538s1.584 3.538 3.538 3.538 3.538-1.584 3.538-3.538-1.584-3.538-3.538-3.538z" fill="#f9fbfc" style="fill: rgb(236, 231, 214);"></path><path d="m307.256 496.928c-1.954 0-3.538 1.584-3.538 3.538s1.584 3.538 3.538 3.538 3.538-1.584 3.538-3.538c-.001-1.954-1.585-3.538-3.538-3.538z" fill="#f9fbfc" style="fill: rgb(236, 231, 214);"></path><path d="m292.743 465.824c0 1.954 1.584 3.538 3.538 3.538s3.538-1.584 3.538-3.538-1.584-3.538-3.538-3.538-3.538 1.584-3.538 3.538z" fill="#f9fbfc" style="fill: rgb(236, 231, 214);"></path><path d="m296.281 492.171c1.954 0 3.538-1.584 3.538-3.538s-1.584-3.538-3.538-3.538-3.538 1.584-3.538 3.538 1.584 3.538 3.538 3.538z" fill="#f9fbfc" style="fill: rgb(236, 231, 214);"></path><path d="m284.447 496.928c-1.954 0-3.538 1.584-3.538 3.538s1.584 3.538 3.538 3.538 3.538-1.584 3.538-3.538-1.584-3.538-3.538-3.538z" fill="#f9fbfc" style="fill: rgb(236, 231, 214);"></path><path d="m273.472 462.286c-1.954 0-3.538 1.584-3.538 3.538s1.584 3.538 3.538 3.538 3.538-1.584 3.538-3.538-1.584-3.538-3.538-3.538z" fill="#f9fbfc" style="fill: rgb(236, 231, 214);"></path><path d="m273.472 485.095c-1.954 0-3.538 1.584-3.538 3.538s1.584 3.538 3.538 3.538 3.538-1.584 3.538-3.538-1.584-3.538-3.538-3.538z" fill="#f9fbfc" style="fill: rgb(236, 231, 214);"></path><path d="m261.638 496.928c-1.954 0-3.538 1.584-3.538 3.538s1.584 3.538 3.538 3.538 3.538-1.584 3.538-3.538-1.584-3.538-3.538-3.538z" fill="#f9fbfc" style="fill: rgb(236, 231, 214);"></path><path d="m250.663 462.286c-1.954 0-3.538 1.584-3.538 3.538s1.584 3.538 3.538 3.538 3.538-1.584 3.538-3.538-1.584-3.538-3.538-3.538z" fill="#f9fbfc" style="fill: rgb(236, 231, 214);"></path><path d="m250.663 485.095c-1.954 0-3.538 1.584-3.538 3.538s1.584 3.538 3.538 3.538 3.538-1.584 3.538-3.538-1.584-3.538-3.538-3.538z" fill="#f9fbfc" style="fill: rgb(236, 231, 214);"></path><path d="m238.83 496.928c-1.954 0-3.538 1.584-3.538 3.538s1.584 3.538 3.538 3.538 3.538-1.584 3.538-3.538-1.584-3.538-3.538-3.538z" fill="#f9fbfc" style="fill: rgb(236, 231, 214);"></path><path d="m227.855 462.286c-1.954 0-3.538 1.584-3.538 3.538s1.584 3.538 3.538 3.538 3.538-1.584 3.538-3.538-1.584-3.538-3.538-3.538z" fill="#f9fbfc" style="fill: rgb(236, 231, 214);"></path><path d="m227.855 485.095c-1.954 0-3.538 1.584-3.538 3.538s1.584 3.538 3.538 3.538 3.538-1.584 3.538-3.538-1.584-3.538-3.538-3.538z" fill="#f9fbfc" style="fill: rgb(236, 231, 214);"></path><path d="m216.021 496.928c-1.954 0-3.538 1.584-3.538 3.538s1.584 3.538 3.538 3.538 3.538-1.584 3.538-3.538-1.584-3.538-3.538-3.538z" fill="#f9fbfc" style="fill: rgb(236, 231, 214);"></path><path d="m205.046 462.286c-1.954 0-3.538 1.584-3.538 3.538s1.584 3.538 3.538 3.538 3.538-1.584 3.538-3.538-1.584-3.538-3.538-3.538z" fill="#f9fbfc" style="fill: rgb(236, 231, 214);"></path><path d="m205.046 485.095c-1.954 0-3.538 1.584-3.538 3.538s1.584 3.538 3.538 3.538 3.538-1.584 3.538-3.538-1.584-3.538-3.538-3.538z" fill="#f9fbfc" style="fill: rgb(236, 231, 214);"></path><path d="m193.213 496.928c-1.954 0-3.538 1.584-3.538 3.538s1.584 3.538 3.538 3.538 3.538-1.584 3.538-3.538c-.001-1.954-1.585-3.538-3.538-3.538z" fill="#f9fbfc" style="fill: rgb(236, 231, 214);"></path><path d="m182.238 462.286c-1.954 0-3.538 1.584-3.538 3.538s1.584 3.538 3.538 3.538 3.538-1.584 3.538-3.538-1.585-3.538-3.538-3.538z" fill="#f9fbfc" style="fill: rgb(236, 231, 214);"></path><path d="m182.238 485.095c-1.954 0-3.538 1.584-3.538 3.538s1.584 3.538 3.538 3.538 3.538-1.584 3.538-3.538-1.585-3.538-3.538-3.538z" fill="#f9fbfc" style="fill: rgb(236, 231, 214);"></path><path d="m170.404 496.928c-1.954 0-3.538 1.584-3.538 3.538s1.584 3.538 3.538 3.538 3.538-1.584 3.538-3.538-1.584-3.538-3.538-3.538z" fill="#f9fbfc" style="fill: rgb(236, 231, 214);"></path><path d="m159.429 462.286c-1.954 0-3.538 1.584-3.538 3.538s1.584 3.538 3.538 3.538 3.538-1.584 3.538-3.538-1.584-3.538-3.538-3.538z" fill="#f9fbfc" style="fill: rgb(236, 231, 214);"></path><path d="m147.595 474.12c-1.954 0-3.538 1.584-3.538 3.538s1.584 3.538 3.538 3.538 3.538-1.584 3.538-3.538-1.584-3.538-3.538-3.538z" fill="#f9fbfc" style="fill: rgb(236, 231, 214);"></path><path d="m159.429 485.095c-1.954 0-3.538 1.584-3.538 3.538s1.584 3.538 3.538 3.538 3.538-1.584 3.538-3.538-1.584-3.538-3.538-3.538z" fill="#f9fbfc" style="fill: rgb(236, 231, 214);"></path><path d="m147.595 496.928c-1.954 0-3.538 1.584-3.538 3.538s1.584 3.538 3.538 3.538 3.538-1.584 3.538-3.538-1.584-3.538-3.538-3.538z" fill="#f9fbfc" style="fill: rgb(236, 231, 214);"></path><path d="m136.62 462.286c-1.954 0-3.538 1.584-3.538 3.538s1.584 3.538 3.538 3.538 3.538-1.584 3.538-3.538-1.584-3.538-3.538-3.538z" fill="#f9fbfc" style="fill: rgb(236, 231, 214);"></path><path d="m124.787 474.12c-1.954 0-3.538 1.584-3.538 3.538s1.584 3.538 3.538 3.538 3.538-1.584 3.538-3.538-1.584-3.538-3.538-3.538z" fill="#f9fbfc" style="fill: rgb(236, 231, 214);"></path><path d="m136.62 485.095c-1.954 0-3.538 1.584-3.538 3.538s1.584 3.538 3.538 3.538 3.538-1.584 3.538-3.538-1.584-3.538-3.538-3.538z" fill="#f9fbfc" style="fill: rgb(236, 231, 214);"></path><path d="m124.787 496.928c-1.954 0-3.538 1.584-3.538 3.538s1.584 3.538 3.538 3.538 3.538-1.584 3.538-3.538-1.584-3.538-3.538-3.538z" fill="#f9fbfc" style="fill: rgb(236, 231, 214);"></path><path d="m113.812 462.286c-1.954 0-3.538 1.584-3.538 3.538s1.584 3.538 3.538 3.538 3.538-1.584 3.538-3.538-1.584-3.538-3.538-3.538z" fill="#f9fbfc" style="fill: rgb(236, 231, 214);"></path><path d="m101.978 474.12c-1.954 0-3.538 1.584-3.538 3.538s1.584 3.538 3.538 3.538 3.538-1.584 3.538-3.538-1.584-3.538-3.538-3.538z" fill="#f9fbfc" style="fill: rgb(236, 231, 214);"></path><path d="m113.812 485.095c-1.954 0-3.538 1.584-3.538 3.538s1.584 3.538 3.538 3.538 3.538-1.584 3.538-3.538-1.584-3.538-3.538-3.538z" fill="#f9fbfc" style="fill: rgb(236, 231, 214);"></path><path d="m101.978 496.928c-1.954 0-3.538 1.584-3.538 3.538s1.584 3.538 3.538 3.538 3.538-1.584 3.538-3.538-1.584-3.538-3.538-3.538z" fill="#f9fbfc" style="fill: rgb(236, 231, 214);"></path><path d="m91.003 462.286c-1.954 0-3.538 1.584-3.538 3.538s1.584 3.538 3.538 3.538 3.538-1.584 3.538-3.538-1.584-3.538-3.538-3.538z" fill="#f9fbfc" style="fill: rgb(236, 231, 214);"></path><path d="m79.169 481.195c1.954 0 3.538-1.584 3.538-3.538s-1.584-3.538-3.538-3.538-3.538 1.584-3.538 3.538c.001 1.955 1.585 3.538 3.538 3.538z" fill="#f9fbfc" style="fill: rgb(236, 231, 214);"></path><path d="m91.003 485.095c-1.954 0-3.538 1.584-3.538 3.538s1.584 3.538 3.538 3.538 3.538-1.584 3.538-3.538-1.584-3.538-3.538-3.538z" fill="#f9fbfc" style="fill: rgb(236, 231, 214);"></path><path d="m68.195 462.286c-1.954 0-3.538 1.584-3.538 3.538s1.584 3.538 3.538 3.538 3.538-1.584 3.538-3.538-1.585-3.538-3.538-3.538z" fill="#f9fbfc" style="fill: rgb(236, 231, 214);"></path></g><g fill="#e9c278"><path d="m329.922 260.345h-218.037c-17.34 0-31.397-14.057-31.397-31.397v-99.425c0-17.34 14.057-31.397 31.397-31.397h218.037c17.34 0 31.397 14.057 31.397 31.397v99.425c0 17.34-14.057 31.397-31.397 31.397z" fill="#e9c278" style="fill: rgb(236, 231, 214);"></path><path d="m312.526 98.126v256.854c0 4.782-3.877 8.659-8.659 8.659h-20.674c-4.782 0-8.659-3.877-8.659-8.659v-256.854" fill="#e9c278" style="fill: rgb(236, 231, 214);"></path><path d="m167.273 98.126v256.854c0 4.782-3.877 8.659-8.659 8.659h-20.674c-4.782 0-8.659-3.877-8.659-8.659v-256.854" fill="#e9c278" style="fill: rgb(236, 231, 214);"></path></g><path d="m484.186 101.166h-14.003c-5.558 0-10.064-4.506-10.064-10.064v-63.012c0-5.559 4.506-10.064 10.064-10.064h14.003c5.558 0 10.064 4.506 10.064 10.064v63.012c0 5.558-4.506 10.064-10.064 10.064z" fill="#eaa895" style="fill: rgb(111, 148, 127);"></path></g><g fill="#31373d"><path d="m410.107 64.583h-117.007v-.751c0-11.359-9.242-20.601-20.601-20.601h-103.192c-11.359 0-20.601 9.242-20.601 20.601v.751h-117.267c-.106 0-.206.023-.31.031-15.854.661-27.74 28.659-27.74 65.668 0 36.981 11.867 64.963 27.702 65.667.116.01.229.033.348.033h25.702l3.812 84.829h-13.498c-11.837 0-21.468 9.631-21.468 21.468v18.565c0 7.618 3.992 14.316 9.99 18.128v83.031c0 12.774 10.392 23.166 23.166 23.166h.759c-.084.974-.161 1.95-.248 2.923l-1.427 16.009c-1.032 12.287 3.163 24.54 11.509 33.616 8.345 9.077 20.204 14.283 32.534 14.283h235.526c12.689 0 24.776-5.461 33.164-14.981 8.367-9.497 12.263-22.137 10.695-34.693l-1.283-15.948c-.032-.402-.06-.806-.092-1.208h.635c12.774 0 23.167-10.392 23.167-23.166v-83.031c5.998-3.812 9.99-10.51 9.99-18.128v-18.565c0-11.837-9.631-21.468-21.468-21.468h-12.299l4.241-84.829h25.56c16.14 0 28.311-28.245 28.311-65.7.001-37.455-12.17-65.7-28.31-65.7zm-80.185 37.509c15.126 0 27.431 12.306 27.431 27.431v99.424c0 15.126-12.306 27.431-27.431 27.431h-4.525v-13.263c0-5.712-3.744-10.561-8.905-12.238v-128.785zm-166.615 0v128.154h-30.06v-128.154zm-37.992 128.785c-5.161 1.677-8.905 6.526-8.905 12.238v13.263h-4.525c-15.126 0-27.431-12.306-27.431-27.431v-99.424c0-15.126 12.306-27.431 27.431-27.431h13.43zm7.932 71.412h30.06v52.691c0 2.588-2.105 4.693-4.693 4.693h-20.675c-2.588 0-4.693-2.105-4.693-4.693v-52.691zm37.992-71.412v-128.785h99.329v128.786c-5.161 1.677-8.905 6.526-8.905 12.238v13.263h-81.519v-13.263c-.001-5.713-3.744-10.562-8.905-12.239zm90.424-136.717h-81.519v-12.452c0-4.009 3.262-7.271 7.271-7.271h66.978c4.009 0 7.271 3.262 7.271 7.271v12.452zm16.837 208.129h30.06v52.691c0 2.588-2.105 4.693-4.693 4.693h-20.675c-2.588 0-4.693-2.105-4.693-4.693v-52.691zm30.06-72.044h-30.06v-128.153h30.06zm-139.253-179.082h103.192c6.986 0 12.669 5.683 12.669 12.669v30.328h-15.573v-12.452c0-8.383-6.82-15.203-15.203-15.203h-66.978c-8.383 0-15.203 6.82-15.203 15.203v12.452h-15.573v-30.328c0-6.985 5.684-12.669 12.669-12.669zm-157.986 79.12c0-34.043 10.74-57.767 20.379-57.767s20.379 23.724 20.379 57.767c0 34.044-10.74 57.768-20.379 57.768s-20.379-23.725-20.379-57.768zm34.28 57.768c8.735-10.929 14.41-32.198 14.41-57.768s-5.675-46.839-14.41-57.767h103.106v21.644h-36.822c-19.499 0-35.363 15.864-35.363 35.363v8.447c-3.818 1.866-7.325 4.403-10.363 7.581-6.95 7.269-10.529 16.805-10.078 26.852l.703 15.648zm-11.683 114.228c0-7.464 6.072-13.536 13.536-13.536h13.854l1.244 27.685c.268 5.975.477 11.96.636 17.952h-15.733c-7.464 0-13.536-6.073-13.536-13.536v-18.565zm25.224 134.958c-8.4 0-15.234-6.834-15.234-15.234v-79.989c1.155.193 2.338.298 3.547.298h15.913c.583 31.635-.361 63.429-2.815 94.925zm305.867 54.538c-6.882 7.812-16.801 12.293-27.212 12.293h-235.527c-10.266 0-19.748-4.162-26.697-11.719s-10.303-17.353-9.445-27.562l1.426-15.989c3.921-43.969 4.905-88.625 2.923-132.725l-6.472-144.026c-.353-7.863 2.448-15.326 7.887-21.015 1.421-1.487 2.974-2.794 4.63-3.921v81.837c0 19.499 15.864 35.363 35.363 35.363h4.525v25.109c0 5.712 3.744 10.561 8.905 12.238v53.323c0 6.961 5.663 12.625 12.625 12.625h20.675c6.961 0 12.625-5.664 12.625-12.625v-53.323c5.161-1.677 8.905-6.526 8.905-12.238v-25.109h81.519v25.109c0 5.712 3.744 10.561 8.905 12.238v53.323c0 6.961 5.663 12.625 12.625 12.625h20.675c6.961 0 12.625-5.664 12.625-12.625v-53.323c5.161-1.677 8.905-6.526 8.905-12.238v-25.109h4.525c19.499 0 35.363-15.864 35.363-35.363v-81.809c1.671 1.138 3.248 2.44 4.68 3.946 5.444 5.722 8.224 13.218 7.829 21.107l-7.286 145.678c-2.144 42.887-1.486 86.337 1.956 129.144l1.29 16.037c.005.06.011.121.019.181 1.312 10.328-1.883 20.732-8.766 28.543zm31.142-69.772c0 8.4-6.834 15.234-15.235 15.234h-1.231c-2.235-31.5-2.96-63.304-2.158-94.925h15.077c1.208 0 2.392-.106 3.547-.298zm-3.547-133.26c7.464 0 13.536 6.072 13.536 13.536v18.565c0 7.464-6.073 13.536-13.536 13.536h-14.844c.18-5.379.403-10.751.672-16.114l1.476-29.523zm-16.892-143.126c-3.054-3.21-6.581-5.777-10.427-7.657v-8.437c0-19.499-15.864-35.363-35.363-35.363h-36.822v-21.645h103.106c-8.735 10.929-14.41 32.198-14.41 57.767 0 25.57 5.675 46.839 14.41 57.768h-11.263l.773-15.464c.504-10.079-3.049-19.656-10.004-26.969zm34.395 42.434c-9.639 0-20.379-23.724-20.379-57.768 0-34.043 10.74-57.767 20.379-57.767s20.379 23.724 20.379 57.767-10.74 57.768-20.379 57.768z" fill="#31373d" style="fill: rgb(60, 44, 19);"></path><path d="m282.972 387.056h-124.138c-9.529 0-17.281 7.752-17.281 17.281v12.107c0 3.437 1.02 6.635 2.757 9.329v36.796c0 10.611 8.632 19.243 19.243 19.243h114.7c10.611 0 19.243-8.632 19.243-19.243v-36.796c1.737-2.694 2.757-5.892 2.757-9.329v-12.107c0-9.529-7.752-17.281-17.281-17.281zm-133.487 17.281c0-5.155 4.194-9.349 9.349-9.349h124.138c5.155 0 9.349 4.194 9.349 9.349v12.107c0 5.155-4.194 9.349-9.349 9.349h-124.138c-5.155 0-9.349-4.194-9.349-9.349zm128.768 69.542h-114.7c-6.237 0-11.311-5.074-11.311-11.311v-30.157c2.033.842 4.258 1.313 6.591 1.313h124.138c2.334 0 4.559-.47 6.591-1.313v30.157c.002 6.237-5.072 11.311-11.309 11.311z" fill="#31373d" style="fill: rgb(60, 44, 19);"></path><path d="m499.176 432.37h-13.115v-327.378c6.851-.921 12.155-6.79 12.155-13.89v-63.012c0-7.099-5.304-12.969-12.155-13.89v-5.323c0-4.902-3.974-8.877-8.876-8.877s-8.876 3.974-8.876 8.877v5.323c-6.851.921-12.155 6.791-12.155 13.89v63.012c0 7.099 5.304 12.969 12.155 13.89v327.378h-13.115c-5.211 0-9.435 4.224-9.435 9.435s4.224 9.435 9.435 9.435h13.115v18.038h-4.842c-5.211 0-9.435 4.225-9.435 9.435 0 5.211 4.224 9.435 9.435 9.435h4.842v8.499c0 4.902 3.974 8.877 8.876 8.877 4.902 0 8.876-3.974 8.876-8.877v-8.499h4.842c5.211 0 9.435-4.224 9.435-9.435s-4.224-9.435-9.435-9.435h-4.842v-18.038h13.115c5.211 0 9.435-4.224 9.435-9.435 0-5.211-4.224-9.435-9.435-9.435zm-35.091-341.268v-63.012c0-3.363 2.736-6.099 6.098-6.099h14.003c3.362 0 6.098 2.736 6.098 6.099v63.012c0 3.362-2.736 6.098-6.098 6.098h-14.003c-3.362 0-6.098-2.736-6.098-6.098z" fill="#31373d" style="fill: rgb(60, 44, 19);"></path></g></g></svg>