<!-- icon666.com - MILLIONS vector ICONS FREE --><svg id="Layer_1" enable-background="new 0 0 512 512" viewBox="0 0 512 512" xmlns="http://www.w3.org/2000/svg"><g id="_x33_5_Hiking"><path d="m340.391 207.5-20.265-69.846c-.495-1.721.495-3.547 2.216-4.042s3.547.495 4.043 2.217l20.734 71.411c-.194 0-.696.068-6.233.705-.156-.158-.338-.34-.495-.445zm90.867 304.5c.314 0 .626-.052.913-.131 1.748-.495 2.738-2.321 2.243-4.043l-77.488-266.838c-1.852.992-3.912 1.618-6.05 1.853l-.208.027 77.461 266.785c.416 1.434 1.721 2.347 3.129 2.347zm-328.875-383.232c-.002.012-.005.03-.007.04.003-.014.005-.026.007-.04zm.043-.234c.006-.034.011-.06.014-.081-.003.023-.008.048-.014.081zm22.351 187.752c13.865 0 23.985-1.331 35.131-10.042-.278-3.901 2.922-83.45 6.234-107.663 3.416-24.856 9.285-44.626 17.996-60.482 3.312-6.077 6.73-10.981 10.042-15.023-5.763-18.804-23.056-33.384-45.199-33.461-22.742 0-42.513 16.457-46.529 38.783-.001.004-.001.006-.002.011-.001.003-.003.017-.008.047.001-.003.001-.007.002-.01-.007.04-.014.077-.02.11.001-.006.002-.013.004-.019-.006.033-.013.074-.022.123-.008.045-.015.083-.02.112.003-.017.006-.035.01-.054-.006.03-.011.062-.017.098 0-.001.001-.003.001-.004-.012.067-.014.082-.012.065-.544 2.967-4.187 22.835-24.116 131.548-5.354 29.204 17.166 55.861 46.525 55.861zm66.69 30.984c-11.632-4.199-20.16-11.006-25.403-20.108-.183 21.308-.626 50.599-2.322 56.727-7.459 8.711-14.763 19.509-25.064 37.192 3.339.339 6.494 1.773 8.998 4.095l15.102 14.006c2.374 2.216 3.912 4.956 4.59 7.902 13.457-12.727 34.453-33.488 38.887-43.087 2.973-6.442 7.642-18.282 12.78-31.818-9.598-11.242-20.604-22.378-27.568-24.909zm121.558 48.357c.537-3.693.902-6.633 1.141-9.25.163-1.793-1.159-3.38-2.95-3.545-1.783-.117-3.38 1.156-3.545 2.95-.227 2.501-.578 5.33-1.1 8.904-.259 1.783.975 3.436 2.756 3.698 1.795.255 3.438-.983 3.698-2.757zm-9.501 15.87c-.924 4.626-3.73 18.003-5.524 26.575-.367 1.763.764 3.489 2.527 3.857 1.791.366 3.493-.784 3.857-2.527 1.542-7.367 4.554-21.705 5.535-26.632.351-1.765-.795-3.482-2.56-3.833-1.761-.363-3.483.793-3.835 2.56zm26.279-201.675c3.547 0 6.599 2.008 8.059 5.033l9.676-1.121c6.208-.679 11.867 3.781 12.597 10.014s-3.782 11.894-10.014 12.624l-9.52 1.095c-.183 4.277-3.312 7.929-7.667 8.555-29.291 4.224-81.274 9.847-104.064-8.555-18.179-14.657-29.054-48.981-32.289-65.099-3.208-16.092 4.773-25.873 13.302-29.655 10.197-4.538 22.012-1.382 28.742 7.668 3.703 4.981 5.634 12.675 7.877 21.569 3.208 12.701 6.859 27.098 16.457 34.27 8.96 6.672 52.669 4.419 66.844 3.602zm9.285 11.449.991 9.676 9.312-1.069c2.661-.314 4.564-2.713 4.277-5.373-.313-2.661-2.713-4.616-5.399-4.277zm-56.075 242.113c0-4.276-3.83-8.685-9.077-8.685h-20.605c-4.956 0-8.946 3.86-9.077 8.789-.443 13.406-.522 31.193-.522 40.609 0 4.356 3.547 7.903 7.929 7.903h57.43c5.051 0 9.138-4.84 7.642-9.963-2.676-9.349-10.99-15.922-18.387-16.979-18.424-4.02-14.924-20.802-15.333-21.674zm-152.42-33.175c-9.389 9.467-21.569 22.482-28.011 29.393-2.947 3.181-2.765 8.216.443 11.189l42.069 39.07c3.767 3.503 10.037 2.614 12.414-2.087 3.965-7.85 3.339-17.239-1.643-24.516-.078-.156-.183-.287-.287-.443-3.364-4.799-7.72-14.241.705-23.316l2.791-3c.052-.079.104-.131.156-.208 3-3.782 2.609-9.077-.887-12.337l-15.101-14.006c-3.625-3.365-9.18-3.26-12.649.261zm71.228-419.181c-15.448 10.906-25.048 27.918-26.333 46.674-.123 1.799 1.233 3.354 3.028 3.477 1.814.121 3.355-1.247 3.477-3.028 1.154-16.792 9.75-32.026 23.588-41.794 1.472-1.039 1.821-3.074.784-4.544-1.04-1.471-3.076-1.822-4.544-.785zm19.023-2.346c3.23-1.042 6.561-1.778 9.905-2.186 1.788-.219 3.059-1.847 2.842-3.632-.219-1.788-1.893-3.047-3.632-2.842-3.757.461-7.496 1.286-11.117 2.455-1.714.553-2.653 2.389-2.101 4.103.556 1.724 2.401 2.652 4.103 2.102zm17.101 11.685c21.96 0 39.956 17.005 41.626 38.522h20.004c1.8 0 3.26 1.461 3.26 3.26 0 1.8-1.461 3.26-3.26 3.26h-24.803c.339 4.773.339 9.962-.079 15.544.913 2.322 1.643 4.878 3.808 13.692.626 2.347-.418 5.686-3.208 6.938h-.027c-1.8.782-2.973 1.095-4.512 1.226-1.174 3.235-2.164 6.181-2.999 8.763-3.352 10.398-10.52 17.085-19.85 19.17.779 1.49 1.468 3.054 1.983 4.747 5.582 13.301 7.538 30.697 7.381 50.336-1.8-4.981-3.182-10.432-4.486-15.597-2.399-9.519-4.46-17.736-8.919-23.734-8.336-11.202-23.332-15.641-36.618-9.754-10.354 4.59-21.021 17.005-17.058 36.904 3.651 18.179 15.023 53.127 34.584 68.906 6.729 5.425 15.649 9.259 26.968 11.58-.705 5.686-1.434 11.372-2.164 17.031-1.017 8.112-2.035 16.17-2.973 24.099 5.763 8.451 42.173 62.021 46.033 73.81 4.024 12.373-3.865 41.323-11.659 80.773-2.113-1.069-4.512-1.669-7.042-1.669h-20.605c-2.999 0-5.79.808-8.137 2.268-1.455-30.844-.861-48.286-.861-55.345-2.478-5.529-34.01-47.937-50.65-53.962-19.744-7.172-28.925-22.3-27.229-44.99 2.72-51.468.926-113.941 23.395-154.923 6.78-12.387 13.997-19.505 19.481-24.838-8.893-9.423-14.552-22.572-12.858-37.418.547-4.799 1.774-9.337 3.574-13.562h-.626c-1.8 0-3.26-1.461-3.26-3.26.003-23.024 18.755-41.777 41.786-41.777zm-30.725 45.042c-2.191 4.355-3.678 9.154-4.277 14.293-2.582 22.638 14.684 40.74 32.158 44.495 12.728 2.765 22.586-2.713 26.447-14.605 1.017-3.208 2.295-6.937 3.808-11.033.443-1.252 1.617-2.113 2.947-2.139 2.113-.079 2.713-.131 3.782-.574-2.191-8.972-2.816-10.954-3.703-13.119-.208-.469-.287-.991-.235-1.513.444-5.738.47-11.007.079-15.805-.002 0-61.006 0-61.006 0z"></path></g></svg>