<!-- icon666.com - MILLIONS vector ICONS FREE --><svg version="1.1" id="Capa_1" xmlns="http://www.w3.org/2000/svg" xmlns:xlink="http://www.w3.org/1999/xlink" x="0px" y="0px" viewBox="0 0 432 432" style="enable-background:new 0 0 432 432;" xml:space="preserve"><path style="fill: rgb(111, 148, 127);" d="M236.56,423.92c1.12,0.08,2.32,0.08,3.44,0.08s2.32,0,3.44-0.08 c33.965-1.828,60.567-29.906,60.56-63.92c0-1.36-0.08-2.72-0.16-4c0.013-0.535-0.013-1.069-0.08-1.6l-118.64-27.36 c-5.271,8.793-8.344,18.727-8.96,28.96C130.209,338.129,93.871,301.79,76,255.84c10.233-0.616,20.167-3.689,28.96-8.96L77.6,128.24 c-0.531-0.067-1.065-0.093-1.6-0.08c-1.28-0.08-2.64-0.16-4-0.16c-34.014-0.007-62.092,26.595-63.92,60.56C8,189.68,8,190.88,8,192 s0,2.32,0.08,3.44C9.847,320.887,111.113,422.153,236.56,423.92L236.56,423.92z" fill="#27AAE1"></path><path style="fill: rgb(255, 0, 47);" d="M256,264h80v-88h88V96h-88V8h-80v88h-88v80h88V264z" fill="#D80027"></path><g><path style="" d="M311.84,356c0.016-0.923-0.041-1.846-0.168-2.76c-0.476-3.263-2.906-5.9-6.12-6.64L186.92,319.24 c-3.384-0.779-6.884,0.714-8.664,3.696c-4.007,6.705-6.898,14.016-8.56,21.648c-36.361-16.737-65.543-45.919-82.28-82.28 c7.632-1.662,14.943-4.553,21.648-8.56c2.982-1.78,4.475-5.28,3.696-8.664L85.4,126.44c-0.745-3.234-3.409-5.672-6.696-6.128 c-0.726-0.103-1.459-0.149-2.192-0.136C75.064,120.088,73.528,120,72,120c-38.216-0.008-69.781,29.843-71.904,68 C0,189.304,0,190.696,0,192s0,2.696,0.08,3.552C1.189,325.455,106.099,430.557,236,431.904c1.304,0.088,2.696,0.096,4,0.096 c1.304,0,2.696,0,3.88-0.088c38.197-2.086,68.105-33.658,68.12-71.912C312,358.472,311.912,356.936,311.84,356z M242.888,415.944 C241.944,416,240.936,416,240,416s-1.944,0-3.328-0.08C115.15,414.763,16.985,316.412,16.056,194.888C16,193.944,16,192.944,16,192 s0-1.944,0.064-3c1.595-29.411,25.685-52.568,55.136-53l24.608,106.704c-6.372,2.987-13.255,4.732-20.28,5.144 c-4.41,0.268-7.768,4.06-7.5,8.47c0.05,0.823,0.227,1.633,0.524,2.402c18.669,48.058,56.666,86.064,104.72,104.744 c4.121,1.594,8.753-0.454,10.348-4.574c0.297-0.769,0.474-1.579,0.524-2.402c0.412-7.025,2.157-13.908,5.144-20.28L296,360.8 C295.553,390.289,272.339,414.391,242.888,415.944L242.888,415.944z" fill="#231F20"></path><path style="" d="M336,272h-80c-4.418,0-8-3.582-8-8v-80h-80c-4.418,0-8-3.582-8-8V96c0-4.418,3.582-8,8-8h80V8 c0-4.418,3.582-8,8-8h80c4.418,0,8,3.582,8,8v80h80c4.418,0,8,3.582,8,8v80c0,4.418-3.582,8-8,8h-80v80 C344,268.418,340.418,272,336,272z M264,256h64v-80c0-4.418,3.582-8,8-8h80v-64h-80c-4.418,0-8-3.582-8-8V16h-64v80 c0,4.418-3.582,8-8,8h-80v64h80c4.418,0,8,3.582,8,8V256z" fill="#231F20"></path></g></svg>