<!-- icon666.com - MILLIONS vector ICONS FREE --><svg version="1.1" id="Capa_1" xmlns="http://www.w3.org/2000/svg" xmlns:xlink="http://www.w3.org/1999/xlink" x="0px" y="0px" viewBox="0 0 512 512" style="enable-background:new 0 0 512 512;" xml:space="preserve"><g><rect x="133.89" y="10" style="" width="174.9" height="31.473" fill="#E63A3B"></rect><path style="fill: rgb(111, 98, 83);" d="M308.79,41.473H133.892H58.906c-14.924,0-27.134,12.211-27.134,27.135v406.26 c0,14.924,12.21,27.133,27.134,27.133h324.869c14.925,0,27.134-12.209,27.134-27.133v-46.865l-31.181,33.93 c-17.072,18.576-31.988,21.059-51.709,5.684l-17.233-13.436H71.141V89.295H371.54v301.531l39.369-42.838V68.607 c0-14.924-12.209-27.135-27.134-27.135L308.79,41.473L308.79,41.473z" fill="#FF7E40"></path><path style="fill: rgb(236, 231, 214);" d="M371.54,89.295H71.141V454.18h239.645l-13.705-10.685c-38.488-32.391,1.146-76.895,33.29-42.699 l18.647,14.539l22.522-24.508L371.54,89.295L371.54,89.295z" fill="#F0F0F0"></path><path style="fill: rgb(111, 148, 127);" d="M410.909,347.988l-39.369,42.838l-22.522,24.508l-18.647-14.539 c-32.145-34.195-71.778,10.309-33.29,42.699l13.705,10.685l17.233,13.436c19.721,15.375,34.637,12.893,51.709-5.684l31.181-33.93 l62.138-67.613c23.793-24.551-17.093-61.85-39.864-36.637L410.909,347.988z" fill="#00BAF7"></path></g><path d="M487.436,330.191c-6.191-14.622-21.111-24.835-36.283-24.835c-9.703,0-18.483,4.044-25.334,11.629l-4.91,5.343V68.607 c0-20.477-16.658-37.135-37.134-37.135H318.79V10c0-5.522-4.478-10-10-10H133.892c-5.522,0-10,4.478-10,10v21.473H58.906 c-20.476,0-37.134,16.658-37.134,37.135v406.26C21.772,495.343,38.43,512,58.906,512h324.869c20.476,0,37.134-16.657,37.134-37.133 V431.9l59.418-64.655C490.243,356.94,492.902,343.099,487.436,330.191z M143.892,20H298.79v11.473H143.892V20z M400.909,474.867 c0,9.447-7.686,17.133-17.134,17.133H58.906c-9.447,0-17.134-7.685-17.134-17.133V68.607c0-9.448,7.687-17.135,17.134-17.135 h324.869c9.447,0,17.134,7.687,17.134,17.135V344.09l-19.369,21.077V89.295c0-5.522-4.478-10-10-10H71.141c-5.523,0-10,4.478-10,10 V454.18c0,5.523,4.477,10,10,10h236.207l14.522,11.322c10.518,8.2,20.327,12.188,29.985,12.186c12.132,0,23.328-6.034,35.235-18.99 l13.817-15.035v21.204H400.909z M283.49,444.18H81.141V99.295H361.54V386.93l-13.645,14.848l-10.792-8.413 c-11.827-12.28-23.54-14.883-31.335-14.883c-14.557,0-27.244,8.997-32.323,22.92C268.243,415.663,272.01,431.133,283.49,444.18z M465.866,353.43c-0.062,0.064-0.122,0.127-0.183,0.192l-93.318,101.543c-10.316,11.226-16.646,12.523-20.509,12.523 c-5.032,0-10.818-2.604-17.688-7.96l-30.784-24.001c-10.13-8.584-14.297-18.845-11.149-27.473c2.166-5.937,7.479-9.772,13.534-9.772 c5.694,0,11.682,3.168,17.316,9.162c0.352,0.374,0.732,0.721,1.138,1.037l18.647,14.539c4.107,3.202,9.986,2.715,13.512-1.12 l84.222-91.645c3.056-3.383,6.605-5.099,10.55-5.099c7.136,0,14.816,5.432,17.866,12.633 C471.402,343.617,470.341,348.812,465.866,353.43z" fill="#000000"></path><path d="M316.251,160.346c5.523,0,10-4.478,10-10s-4.477-10-10-10H170.383c-5.522,0-10,4.478-10,10s4.478,10,10,10H316.251z" fill="#000000"></path><path d="M140.43,140.346h-1.756c-5.523,0-10,4.478-10,10s4.477,10,10,10h1.756c5.522,0,10-4.478,10-10 C150.43,144.823,145.953,140.346,140.43,140.346z" fill="#000000"></path><path d="M316.251,205.02H193.883c-5.522,0-10,4.477-10,10c0,5.522,4.478,10,10,10H316.25c5.523,0,10-4.478,10-10 C326.251,209.497,321.773,205.02,316.251,205.02z" fill="#000000"></path><path d="M326.251,279.904c0-5.522-4.477-10-10-10H174.383c-5.522,0-10,4.478-10,10s4.478,10,10,10H316.25 C321.773,289.904,326.251,285.427,326.251,279.904z" fill="#000000"></path><path d="M140.43,269.904h-1.756c-5.523,0-10,4.478-10,10s4.477,10,10,10h1.756c5.522,0,10-4.478,10-10 S145.953,269.904,140.43,269.904z" fill="#000000"></path><path d="M326.251,344.578c0-5.522-4.477-10-10-10H193.883c-5.522,0-10,4.478-10,10s4.478,10,10,10H316.25 C321.773,354.578,326.251,350.101,326.251,344.578z" fill="#000000"></path></svg>