<!-- icon666.com - MILLIONS vector ICONS FREE --><svg version="1.1" id="Layer_1" xmlns="http://www.w3.org/2000/svg" xmlns:xlink="http://www.w3.org/1999/xlink" x="0px" y="0px" viewBox="0 0 512 512" style="enable-background:new 0 0 512 512;" xml:space="preserve"><rect x="8.44" y="75.956" style="fill: rgb(236, 231, 214);" width="495.121" height="360.088" fill="#FFECD4"></rect><rect x="53.451" y="120.967" style="fill: rgb(236, 231, 214);" width="405.099" height="239.143" fill="#FE623F"></rect><polygon style="fill: rgb(111, 148, 127);" points="359.525,252.624 287.863,325.929 191.725,224.492 53.451,368.527 53.451,391.033 458.549,391.033 458.549,360.11 " fill="#A41010"></polygon><circle style="" cx="287.508" cy="210.989" r="39.576" fill="#FFD178"></circle><path d="M503.56,444.484H8.44c-4.661,0-8.44-3.779-8.44-8.44V75.956c0-4.661,3.779-8.44,8.44-8.44H503.56 c4.661,0,8.44,3.779,8.44,8.44v360.088C512,440.705,508.221,444.484,503.56,444.484z M16.879,427.604h478.242V84.396H16.879V427.604 z" fill="#000000" style="fill: rgb(60, 44, 19);"></path><path d="M458.549,399.473H53.451c-4.661,0-8.44-3.779-8.44-8.44V199.736c0-4.661,3.779-8.44,8.44-8.44s8.44,3.779,8.44,8.44v182.857 h388.22V129.407H61.89v36.571c0,4.661-3.779,8.44-8.44,8.44s-8.44-3.779-8.44-8.44v-45.011c0-4.661,3.779-8.44,8.44-8.44h405.099 c4.661,0,8.44,3.779,8.44,8.44v270.066C466.989,395.694,463.21,399.473,458.549,399.473z" fill="#000000" style="fill: rgb(60, 44, 19);"></path><path d="M87.207,343.209c-2.084,0-4.171-0.767-5.804-2.315c-3.383-3.206-3.527-8.548-0.32-11.931l104.517-110.277 c1.593-1.682,3.808-2.634,6.125-2.634c2.317,0,4.531,0.952,6.125,2.634l90.013,94.973l63.018-66.49 c1.593-1.682,3.808-2.634,6.125-2.634c2.317,0,4.531,0.953,6.125,2.634l67.784,71.521c3.207,3.383,3.063,8.724-0.32,11.931 c-3.383,3.208-8.724,3.063-11.931-0.32l-61.659-65.058l-63.018,66.49c-1.593,1.682-3.808,2.634-6.125,2.634 c-2.317,0-4.531-0.952-6.125-2.634l-90.013-94.973L93.333,340.575C91.675,342.325,89.442,343.209,87.207,343.209z" fill="#000000" style="fill: rgb(60, 44, 19);"></path><path d="M287.863,253.187c-23.268,0-42.198-18.929-42.198-42.198s18.929-42.198,42.198-42.198s42.198,18.929,42.198,42.198 S311.132,253.187,287.863,253.187z M287.863,185.67c-13.961,0-25.319,11.357-25.319,25.319c0,13.961,11.357,25.319,25.319,25.319 s25.319-11.357,25.319-25.319C313.182,197.028,301.825,185.67,287.863,185.67z" fill="#000000" style="fill: rgb(60, 44, 19);"></path></svg>