<!-- icon666.com - MILLIONS vector ICONS FREE --><svg id="Layer_1" enable-background="new 0 0 512 512" viewBox="0 0 512 512" xmlns="http://www.w3.org/2000/svg"><g><path d="m255.36 86.59c-93.42 0-169.43 76-169.43 169.43 0 93.41 76 169.4 169.43 169.4 93.41 0 169.4-75.99 169.4-169.4 0-93.43-75.99-169.43-169.4-169.43z" fill="#f1eeee" style="fill: rgb(236, 231, 214);"></path><path d="m255.36 345.31c49.18 0 89.29-40.11 89.29-89.29 0-49.21-40.11-89.32-89.29-89.32s-89.32 40.11-89.32 89.32c0 49.18 40.14 89.29 89.32 89.29z" fill="#e8e3e3" style="fill: rgb(111, 148, 127);"></path><path d="m501.49 39.76c-.03 0-.06 0-.08 0-13.19 0-42.6 19.01-51.24 63.18-10.45 53.58-10.4 107.77-10.33 165.14l.01 10.21c.07 7.15 5.92 12.96 13.04 12.96h13.78l-14.9 147.78c-.89 8.7 1.78 16.99 7.51 23.33 5.67 6.28 13.9 9.88 22.58 9.88 17.18 0 30.13-13.93 30.13-32.4v-389.79c-.01-5.57-4.68-10.19-10.5-10.29z" fill="#f1eeee" style="fill: rgb(236, 231, 214);"></path><path d="m100.38 121.11h-99.94l-.21 2.13c-1.21 12.19 2.89 24.18 11.55 33.75 6.81 7.52 15.88 12.93 25.61 15.53l-17.12 267.12c-.57 8.81 2.31 17.06 8.11 23.25 5.66 6.03 13.47 9.36 22 9.36 8.52 0 16.33-3.32 21.99-9.34 5.81-6.18 8.7-14.43 8.15-23.26l-17.11-267.1c9.7-2.56 18.7-7.88 25.43-15.28 8.74-9.62 12.91-21.69 11.73-33.98z" fill="#f1eeee" style="fill: rgb(236, 231, 214);"></path><path d="m466.66 291.25-14.9 147.78c-.89 8.7 1.78 16.99 7.51 23.33 5.67 6.28 13.9 9.88 22.58 9.88 17.18 0 30.13-13.93 30.13-32.4v-148.59z" fill="#e56161" style="fill: rgb(111, 98, 83);"></path><path d="m20.27 439.64c-.57 8.81 2.31 17.06 8.11 23.25 5.66 6.03 13.47 9.36 22 9.36 8.52 0 16.33-3.32 21.99-9.34 5.81-6.18 8.7-14.43 8.15-23.26l-9.51-148.39h-41.23z" fill="#e56161" style="fill: rgb(111, 98, 83);"></path><path d="m255.36 86.59c-93.42 0-169.43 76-169.43 169.43 0 93.41 76 169.4 169.43 169.4 93.41 0 169.4-75.99 169.4-169.4 0-93.43-75.99-169.43-169.4-169.43zm0 322.83c-84.61 0-153.44-68.82-153.44-153.41 0-84.61 68.83-153.44 153.44-153.44 84.59 0 153.41 68.83 153.41 153.44 0 84.6-68.82 153.41-153.41 153.41zm-70.36-112.67c2.22 3.82.93 8.71-2.89 10.93-1.26.74-2.65 1.09-4.01 1.09-2.75 0-5.43-1.42-6.92-3.97-8.59-14.76-13.13-31.64-13.13-48.81 0-53.64 43.65-97.29 97.31-97.29 20.88 0 40.79 6.53 57.57 18.88 3.56 2.62 4.32 7.62 1.7 11.18s-7.62 4.32-11.18 1.7c-14.02-10.31-30.65-15.76-48.1-15.76-44.84 0-81.33 36.47-81.33 81.3.02 14.33 3.81 28.43 10.98 40.75zm154.52-89.54c8.59 14.76 13.13 31.63 13.13 48.78 0 53.66-43.64 97.31-97.28 97.31-20.9 0-40.82-6.53-57.6-18.87-3.56-2.62-4.32-7.62-1.7-11.18s7.62-4.32 11.18-1.7c14.02 10.31 30.66 15.76 48.13 15.76 44.83 0 81.3-36.48 81.3-81.33 0-14.33-3.79-28.41-10.96-40.74-2.22-3.82-.93-8.71 2.89-10.93 3.79-2.22 8.68-.92 10.91 2.9zm161.97-167.45c-.03 0-.06 0-.08 0-13.19 0-42.6 19.01-51.24 63.18-10.46 53.58-10.4 107.77-10.33 165.14l.01 10.21c.07 7.15 5.92 12.96 13.04 12.96h13.78l-14.9 147.78c-.89 8.7 1.78 16.99 7.51 23.33 5.67 6.28 13.9 9.88 22.58 9.88 17.18 0 30.13-13.93 30.13-32.4v-389.79c-.01-5.57-4.68-10.19-10.5-10.29zm-45.66 235.5-.01-7.19c-.06-56.57-.12-110.01 10.04-162.06 5.64-28.86 21.4-43.28 30.14-48.22v217.48h-40.17zm26.02 180.99c-4.23 0-8.04-1.64-10.72-4.61-2.66-2.94-3.89-6.84-3.46-11l15.06-149.39h13.27v148.59c-.01 7.91-4.43 16.41-14.15 16.41zm-418.43-283.7c9.7-2.56 18.7-7.88 25.43-15.28 8.74-9.62 12.91-21.69 11.73-33.98l-7.2-76.29c-.42-4.4-4.32-7.63-8.71-7.21-4.4.41-7.62 4.31-7.21 8.71l6.85 72.61h-25.93v-73.36c0-4.42-3.58-7.99-7.99-7.99s-7.99 3.58-7.99 7.99v73.36h-25.9l7.17-72.57c.43-4.39-2.78-8.31-7.17-8.74-4.38-.43-8.31 2.78-8.74 7.17l-7.54 76.27c-1.21 12.19 2.89 24.18 11.55 33.75 6.81 7.52 15.88 12.93 25.61 15.53l-17.11 267.12c-.57 8.81 2.31 17.06 8.11 23.25 5.66 6.03 13.47 9.36 22 9.36 8.52 0 16.33-3.32 21.99-9.34 5.81-6.18 8.7-14.43 8.15-23.26zm-39.79-26.29c-2.06-2.28-4.27-5.35-5.78-9.16h65.06c-1.31 3.35-3.28 6.54-5.89 9.41-6.7 7.37-16.64 11.77-26.6 11.77-9.81 0-20.08-4.61-26.79-12.02zm37.1 305.69c-2.61 2.77-6.28 4.3-10.34 4.3-4.07 0-7.74-1.53-10.34-4.3-2.74-2.93-4.1-6.93-3.82-11.29l14.17-221.26 14.17 221.25c.28 4.36-1.09 8.37-3.84 11.3z" fill="#000000"></path></g></svg>