<?xml version="1.0"?>
<svg width="463.561" height="463.561" xmlns="http://www.w3.org/2000/svg" xmlns:svg="http://www.w3.org/2000/svg" enable-background="new 0 0 463.561 463.561" version="1.1" xml:space="preserve">
 <g class="layer">
  <title>Layer 1</title>
  <g id="svg_1">
   <g id="Layer_1_45_">
    <g id="svg_2">
     <path d="m324.17,297.75c-6.36,33.14 -105.48,53.35 -151.78,35.03c-33.95,-13.44 -22.35,-54.52 -22.35,-54.52l-50.97,-0.1c0,0 -9.64,25.14 -47.07,15.17c3.75,62.51 89.03,101.18 204.68,126.39c115.65,25.23 211.55,14.92 214.18,-23c2.18,-31.32 -59.89,-71.67 -146.69,-98.97z" id="svg_3"/>
     <path d="m558.54,206.09c0,0 -96.66,2.21 -117.28,35.36l-22.24,0c-8.82,-15.64 -17.66,-31.17 -28.2,-45.5c-7.76,-10.57 -16.47,-21.38 -27.19,-28.38c-15.5,-10.1 -33.76,-14.87 -51.14,-19.17c-9.42,-2.33 -52.47,-9.84 -77.51,-9.84c-25.03,0 -50.52,3.95 -54.7,4.79c-9.69,1.93 -19.34,4.09 -28.92,6.62c-9.78,2.58 -19.54,5.47 -28.98,9.35c-5.96,2.44 -12.02,5.24 -17.35,9.16c-11.71,8.64 -21.14,20.53 -29.7,32.79c-5.77,8.27 -11.14,16.87 -16.27,25.65c-2.21,3.8 -4.37,7.61 -6.49,11.47c-0.55,1.01 -1.11,2.04 -1.66,3.06l-27.6,0c-20.63,-33.15 -117.28,-35.36 -117.28,-35.36c-26.99,0 -37.02,21.77 -37.02,48.6c0,26.85 10.03,48.61 37.02,48.61c0,0 96.66,-2.23 117.28,-35.36l26.74,0c3.86,7.8 11.18,13.48 19.94,13.63c7.12,0.12 14.06,-3.48 18.53,-9.65c0.91,-1.27 1.77,-2.63 2.6,-3.99l78.3,0c0,13.89 0,27.79 0,41.68c2.63,3.48 6.32,6.11 11.16,8.03c10.17,4.02 24.11,6.16 40.3,6.15c22.21,0 46.88,-4.14 66,-11.13c5.42,-1.97 9.94,-3.99 13.68,-5.97c0,-12.92 0,-25.84 0,-38.76l78.32,0c1.1,1.78 2.19,3.57 3.48,5.15c4.97,6.09 12.46,9.23 19.83,8.32c7.54,-0.94 14.33,-6.08 17.91,-13.48l21.16,0c20.63,33.14 117.28,35.36 117.28,35.36c27.01,0 37.02,-21.77 37.02,-48.61c0,-26.83 -10.02,-48.6 -37.02,-48.6zm-221,11.18c4.67,3.22 8.71,7.05 12.63,11.42c3.67,4.07 7.13,8.36 10.49,12.76l-60.11,0c0,-11.49 0,-23 0,-34.49c12.55,2.35 25.12,5.07 36.99,10.31zm-217.31,10.92c3.81,-4.2 7.74,-7.84 12.24,-10.95c11.85,-5.21 24.4,-7.92 36.94,-10.27c0,11.49 0,23 0,34.49l-60.11,0c3.5,-4.58 7.1,-9.05 10.92,-13.27z" id="svg_4"/>
     <path d="m205.59,124.5c6.05,4.54 12.93,7.66 20.09,9.23l0.08,0.02c17.74,3.83 36.43,-2.52 49.23,-16.72c12.99,-14.42 18.7,-35.71 14.92,-55.65c-3.7,-19.45 -16.07,-36.08 -32.59,-43.72c-16.9,-7.8 -36.6,-5.64 -51.77,5.73c-15.19,11.35 -24.39,30.84 -24.22,51.17c0.17,19.87 9.42,38.85 24.25,49.94z" id="svg_5"/>
    </g>
   </g>
  </g>
 </g>
</svg>