<!-- icon666.com - MILLIONS vector ICONS FREE --><svg id="Layer_1" enable-background="new 0 0 472 472" viewBox="0 0 472 472" xmlns="http://www.w3.org/2000/svg"><path d="m286.731 359.62c-.1 0 .294.103-24.01-8.28.584-1.646 26.437-18.199 47.42-57.26 45.57-84.82 29.13-215.26-50-268.61-50.36-33.95-130.61-33.97-181 0-93.715 63.183-105.733 244.219-2.69 325.56 52.179-17.982-24.772 8.449-24.92 8.6-21.78 7.55-36.39 28.08-36.39 51.14v45.23c0 4.418 3.582 8 8 8h292c4.418 0 8-3.582 8-8v-45.23c0-23.07-14.62-43.6-36.41-51.15z" fill="#ffebd2" style="fill: rgb(236, 231, 214);"></path><path d="m323.141 410.77v45.23c0 4.418-3.582 8-8 8h-292c-4.418 0-8-3.582-8-8v-45.23c0-23.06 14.61-43.59 36.39-51.14.071-.073 44.661-15.406 46-15.97 5.05-2.044 9.747-4.864 13.93-8.33 2.53 3.15 22.91 27.67 57.68 27.67s55.15-24.52 57.68-27.67c4.179 3.462 8.874 6.284 13.93 8.33 2.154.907 45.879 15.96 45.98 15.96 21.79 7.55 36.41 28.08 36.41 51.15z" fill="#80aaff" style="fill: rgb(111, 148, 127);"></path><path d="m260.141 25.47c93.715 63.183 105.733 244.219 2.69 325.56l-.11.31c-9.33-3.21-21.02-7.28-21.97-7.68-20.094-8.163-33.61-27.926-33.61-50.09 35.82-14.9 61-50.23 61-91.44v-60.347c0-3.348-2.086-6.324-5.221-7.499-14.483-5.429-26.907-15.841-34.955-30.873-2.254-4.21-7.697-5.447-11.617-2.719-40.298 28.038-88.618 40.717-137.519 36.278-4.67-.424-8.689 3.281-8.689 7.97v57.19c0 41.21 25.18 76.54 61 91.44 0 22.354-13.833 43.246-36.488 51.187l-18.202 6.273c-103.035-81.335-90.988-262.401 2.69-325.56 50.391-33.97 130.641-33.95 181.001 0z" fill="#585966" style="fill: rgb(111, 98, 83);"></path><path d="m127.779 350.053c5.323 3.608 4.443 11.714-1.544 14.062-8.75 3.431-44.424 15.227-44.704 15.515-21.78 7.55-36.39 28.08-36.39 51.14v25.23c0 4.418-3.582 8-8 8h-14c-4.418 0-8-3.582-8-8v-45.23c0-23.06 14.61-43.59 36.39-51.14 0 0 .01-.01.03-.01 45.598-15.861 49.93-16.029 59.9-24.29 1.245 1.553 6.824 8.288 16.318 14.723z" fill="#9cbcff" style="fill: rgb(111, 148, 127);"></path><path d="m145.141 199c-4.418 0-8-3.582-8-8v-14c0-4.418 3.582-8 8-8s8 3.582 8 8v14c0 4.418-3.582 8-8 8z" fill="#585966" style="fill: rgb(111, 98, 83);"></path><path d="m195.141 199c-4.418 0-8-3.582-8-8v-14c0-4.418 3.582-8 8-8s8 3.582 8 8v14c0 4.418-3.582 8-8 8z" fill="#585966" style="fill: rgb(111, 98, 83);"></path><path d="m172.681 452.58c-3.58 2.496-8.592 1.629-11.12-2.04-48.293-70.097-63.78-92.322-68.868-99.772-1.477-2.163-.505-5.124 1.96-6.011 2.363-.85 4.579-1.738 7.026-2.987 1.795-.916 3.991-.383 5.136 1.275l67.917 98.415c2.499 3.63 1.589 8.62-2.051 11.12z" fill="#6e6f80" style="fill: rgb(111, 98, 83);"></path><path d="m243.617 344.748c2.465.885 3.44 3.855 1.963 6.018-5.137 7.523-20.711 29.889-68.859 99.774-1.803 2.617-4.924 3.792-7.58 3.39 0 0 0 .01-.01 0-5.82-.71-9.024-7.469-5.58-12.47l67.916-98.414c1.145-1.66 3.343-2.191 5.139-1.274 2.419 1.235 4.621 2.117 7.011 2.976z" fill="#6e6f80" style="fill: rgb(111, 98, 83);"></path><path d="m456.901 316.92c13.15 4.11 15.24 21.87 3.44 28.97-34.2 20.59-79.5 2.8-139.2 45.11v-135c70.68-4.23 70.98 40.68 135.76 60.92z" fill="#ff8c95" style="fill: rgb(255, 109, 122);"></path><path d="m94.395 16.655c18.22-8.985 33.107 16.775 16.113 27.906-88.163 57.749-103.91 216.72-27.447 304.189l-6.61 2.28c-108.038-85.284-89.808-281.239 17.944-334.375z" fill="#6e6f80" style="fill: rgb(111, 98, 83);"></path><path d="m146.452 265.931c16.405 10.305 3.872 35.336-14.111 28.129-36.877-14.78-62.201-50.697-62.201-91.93v-57.19c0-4.69 4.019-8.39 8.689-7.97 2.04.185 4.188.35 6.436.485 8.347.502 14.875 7.395 14.875 15.757v28.918c.001 36.209 18.92 66.594 46.312 83.801z" fill="#fff3e4" style="fill: rgb(236, 231, 214);"></path><path d="m221.141 444v20h-104v-20c0-8.84 7.16-16 16-16h72c8.84 0 16 7.16 16 16z" fill="#cbe3fa" style="fill: rgb(236, 231, 214);"></path><path d="m205.682 438h-52.541c-8.837 0-16 7.163-16 16v5.005c0 2.759-2.236 4.995-4.995 4.995h-15.005v-20c0-8.837 7.163-16 16-16 0 0 72.67.01 73 .031 6.349.39 5.901 9.969-.459 9.969z" fill="#eef7ff" style="fill: rgb(236, 231, 214);"></path><path d="m202.728 311.249c-21.219 7.59-44.6 8.083-67.146.013-3.62-1.296-5.804-5.01-5.174-8.803.483-2.906.732-5.877.732-8.889 23.598 9.823 51.154 10.342 76 0 0 3.012.249 5.984.732 8.89.629 3.782-1.534 7.498-5.144 8.789z" fill="#ffdfba" style="fill: rgb(236, 231, 214);"></path><path d="m460.341 345.89c-34.2 20.59-79.5 2.8-139.2 45.11v-35.64c35.335-1.49 65.609-22.059 78.473-58.008 1.801-5.033 7.989-6.871 12.271-3.671 11.568 8.644 25.305 17.08 45.016 23.239 13.15 4.11 15.24 21.87 3.44 28.97z" fill="#ff6d7a"></path><path d="m321.141 472c-4.418 0-8-3.582-8-8v-223c0-4.418 3.582-8 8-8s8 3.582 8 8v223c0 4.418-3.582 8-8 8z" fill="#42434d" style="fill: rgb(60, 44, 19);"></path></svg>