<!-- icon666.com - MILLIONS vector ICONS FREE --><svg viewBox="0 0 64 64" xmlns="http://www.w3.org/2000/svg"><g id="Artboard_08" data-name="Artboard 08"><path d="m20 14h40a2 2 0 0 1 2 2v34a4 4 0 0 1 -4 4h-36a4 4 0 0 1 -4-4v-34a2 2 0 0 1 2-2z" fill="#d6e0ea" style="fill: rgb(236, 231, 214);"></path><path d="m62 50v-28.255a3.744 3.744 0 0 0 -3.745-3.745h-28.955a7.3 7.3 0 0 0 -7.3 7.3v12.885a15.815 15.815 0 0 0 15.815 15.815h20.185a4 4 0 0 0 4-4z" fill="#eef1fa" style="fill: rgb(236, 231, 214);"></path><path d="m26.007 37.056h-2.014a.992.992 0 0 0 -.993.993v2.014a.992.992 0 0 0 .993.993h10.014a.992.992 0 0 0 .993-.993v-2.014a.992.992 0 0 0 -.993-.993h-2.014a.992.992 0 0 1 -.993-.993v-8.014a.992.992 0 0 1 .993-.993h2.014a.992.992 0 0 0 .993-.993v-2.014a.992.992 0 0 0 -.993-.993h-10.014a.992.992 0 0 0 -.993.993v2.014a.992.992 0 0 0 .993.993h2.014a.992.992 0 0 1 .993.993v8.014a.992.992 0 0 1 -.993.993z" fill="#d6e0ea" style="fill: rgb(236, 231, 214);"></path><path d="m47.518 39.5a2.09 2.09 0 0 0 2.964 0l5.981-6.015a5.733 5.733 0 0 0 1.537-4.025 5.413 5.413 0 0 0 -2.264-4.605l-.5-.311a3.5 3.5 0 0 0 -4.728.964l-1.508 1.902-1.513-1.9a3.5 3.5 0 0 0 -4.727-.964l-.5.311a5.413 5.413 0 0 0 -2.26 4.603 5.733 5.733 0 0 0 1.537 4.021z" fill="#d6e0ea" style="fill: rgb(236, 231, 214);"></path><path d="m18 24h-9a2 2 0 0 0 -2 2v11a2 2 0 0 0 2 2h9v5h-11a5 5 0 0 1 -5-5v-15a5 5 0 0 1 5-5h11z" fill="#33507f" style="fill: rgb(111, 98, 83);"></path><path d="m51.067 52.7h4.617a5.021 5.021 0 0 0 5.022-5.022v-4.978a2.067 2.067 0 0 0 -2.067-2.067h-.186a2.069 2.069 0 0 0 -1.345.5l-7.386 7.937a2.066 2.066 0 0 0 -.722 1.564 2.067 2.067 0 0 0 2.067 2.066z" fill="#fbfbfa" style="fill: rgb(236, 231, 214);"></path><path d="m60 10h-40a2 2 0 0 0 -2 2v4h44v-4a2 2 0 0 0 -2-2z" fill="#446aa9" style="fill: rgb(111, 98, 83);"></path><rect fill="#598ede" height="6" rx="1.848" width="38" x="21" y="10" style="fill: rgb(111, 98, 83);"></rect><path d="m49 38.986 7.463-7.5a5.733 5.733 0 0 0 1.537-4.026 5.413 5.413 0 0 0 -2.264-4.605l-.5-.311a3.5 3.5 0 0 0 -4.728.964l-1.508 1.902-1.513-1.9a3.5 3.5 0 0 0 -4.727-.964l-.5.311a5.413 5.413 0 0 0 -2.26 4.603 5.733 5.733 0 0 0 1.537 4.021z" fill="#c12b35" style="fill: rgb(230, 58, 69);"></path><path d="m42.246 30.776a4.767 4.767 0 0 1 -1.246-3.316 4.441 4.441 0 0 1 1.8-3.76l.495-.311a2.413 2.413 0 0 1 1.295-.389 2.727 2.727 0 0 1 2.115 1.131l2.295 2.885 2.3-2.885a2.727 2.727 0 0 1 2.11-1.131 2.407 2.407 0 0 1 1.3.391l.5.311a4.441 4.441 0 0 1 1.79 3.758 4.767 4.767 0 0 1 -1.246 3.316l-6.754 6.792z" fill="#e63a45"></path><path d="m27 36h-4v4h12v-4h-4v-10h4v-4h-12v4h4z" fill="#2b2e33" style="fill: rgb(111, 148, 127);"></path><path d="m23.5 39.5v-3h4v-11h-4v-3h11v3h-4v11h4v3z" fill="#3f4349" style="fill: rgb(111, 148, 127);"></path><path d="m15 39.065v-.065h-6a2 2 0 0 1 -2-2v-11a2 2 0 0 1 2-2h4.815a1.184 1.184 0 0 0 1.185-1.185v-2.63a1.184 1.184 0 0 0 -1.185-1.185h-6.815a5 5 0 0 0 -5 5v15a5 5 0 0 0 5 5h3.065a4.934 4.934 0 0 0 4.935-4.935z" fill="#446aa9" style="fill: rgb(111, 98, 83);"></path><rect fill="#598ede" height="16" rx="2.5" width="5" x="2" y="24" style="fill: rgb(111, 98, 83);"></rect></g></svg>