<!-- icon666.com - MILLIONS vector ICONS FREE --><svg version="1.1" id="Capa_1" xmlns="http://www.w3.org/2000/svg" xmlns:xlink="http://www.w3.org/1999/xlink" x="0px" y="0px" viewBox="0 0 512 512" style="enable-background:new 0 0 512 512;" xml:space="preserve"><path style="fill: rgb(156, 171, 174);" d="M467,151l-15,30l-15-30h-75v301c0,32.999,57.001,60,90,60s60-27.001,60-60V151H467z" fill="#C4B3AF"></path><path style="fill: rgb(236, 231, 214);" d="M452,512H75c-41.4,0-75-33.6-75-75V0h392v452C392,484.999,419.001,512,452,512z" fill="#EDE9E8"></path><path style="fill: rgb(236, 231, 214);" d="M452,512H210V0h182v452C392,484.999,419.001,512,452,512z" fill="#DFD7D5"></path><g><polygon style="fill: rgb(111, 148, 127);" points="210,106 180,106 180,91 90,91 90,106 60,106 60,61 210,61 " fill="#00C0F1"></polygon><rect x="120" y="76" style="fill: rgb(111, 148, 127);" width="30" height="135" fill="#00C0F1"></rect><rect x="90" y="181" style="fill: rgb(111, 148, 127);" width="90" height="30" fill="#00C0F1"></rect></g><g><rect x="60" y="241" style="fill: rgb(68, 68, 68);" width="272" height="30" fill="#5A5A5A"></rect><rect x="60" y="301" style="fill: rgb(68, 68, 68);" width="272" height="30" fill="#5A5A5A"></rect><rect x="60" y="362" style="fill: rgb(68, 68, 68);" width="272" height="30" fill="#5A5A5A"></rect><rect x="60" y="422" style="fill: rgb(68, 68, 68);" width="272" height="30" fill="#5A5A5A"></rect></g><g><rect x="240" y="61" style="" width="92" height="30" fill="#444444"></rect><rect x="240" y="121" style="" width="92" height="30" fill="#444444"></rect><rect x="240" y="181" style="" width="92" height="30" fill="#444444"></rect><rect x="210" y="241" style="" width="122" height="30" fill="#444444"></rect><rect x="210" y="301" style="" width="122" height="30" fill="#444444"></rect><rect x="210" y="362" style="" width="122" height="30" fill="#444444"></rect><rect x="210" y="422" style="" width="122" height="30" fill="#444444"></rect></g><rect x="437" y="151" style="fill: rgb(156, 171, 174);" width="30" height="301" fill="#B4A29D"></rect></svg>