<!-- icon666.com - MILLIONS vector ICONS FREE --><svg viewBox="0 0 512 512" xmlns="http://www.w3.org/2000/svg" xmlns:xlink="http://www.w3.org/1999/xlink"><linearGradient id="a" gradientUnits="userSpaceOnUse" x1="0" x2="512" y1="256" y2="256"><stop offset="0" stop-color="#00f38d"></stop><stop offset="1" stop-color="#009eff"></stop></linearGradient><path d="m512 256c0 141.386719-114.613281 256-256 256s-256-114.613281-256-256 114.613281-256 256-256 256 114.613281 256 256zm0 0" fill="url(#a)" style="fill: rgb(236, 231, 214);"></path><g fill="#fff"><path d="m271 269.179688h153.183594c.335937-4.363282.515625-8.757813.515625-13.179688 0-45.0625-17.546875-87.425781-49.410157-119.289062-31.863281-31.863282-74.226562-49.410157-119.289062-49.410157s-87.425781 17.546875-119.289062 49.410157c-31.863282 31.863281-49.410157 74.226562-49.410157 119.289062s17.546875 87.425781 49.410157 119.289062c31.863281 31.863282 74.226562 49.410157 119.289062 49.410157 4.421875 0 8.816406-.175781 13.179688-.507813v-12.671875h1.820312zm111.828125-77.757813c8.019531 15.683594 13.203125 33.042969 14.894531 51.398437h-51.050781c-.71875-17.863281-2.890625-35.175781-6.40625-51.398437zm-17.414063-26.359375h-32.363281c-2.980469-8.84375-6.414062-17.195312-10.277343-24.925781-2.429688-4.859375-5-9.394531-7.6875-13.621094 19.546874 8.957031 36.726562 22.207031 50.328124 38.546875zm-45.125 77.757812h-49.289062v-51.398437h42.253906c3.859375 15.953125 6.253906 33.3125 7.035156 51.398437zm-21.09375-90.894531c2.085938 4.171875 4.027344 8.558594 5.824219 13.136719h-34.019531v-47.046875c10.203125 5.878906 20.011719 17.539063 28.195312 33.910156zm-86.390624 0c8.183593-16.371093 17.992187-28.03125 28.195312-33.910156v47.042969h-34.019531c1.796875-4.574219 3.738281-8.960938 5.824219-13.132813zm28.195312 39.496094v51.398437h-49.289062c.78125-18.085937 3.175781-35.445312 7.035156-51.398437zm-44.085938-64.90625c-2.6875 4.226563-5.257812 8.761719-7.6875 13.621094-3.867187 7.730469-7.300781 16.078125-10.28125 24.925781h-32.359374c13.601562-16.339844 30.78125-29.589844 50.328124-38.546875zm-67.742187 64.90625h42.5625c-3.515625 16.222656-5.6875 33.535156-6.40625 51.398437h-51.050781c1.691406-18.355468 6.875-35.714843 14.894531-51.398437zm0 129.15625c-8.019531-15.683594-13.203125-33.042969-14.894531-51.398437h51.050781c.71875 17.863281 2.890625 35.175781 6.40625 51.398437zm17.414063 26.363281h32.363281c2.980469 8.84375 6.414062 17.191406 10.277343 24.921875 2.429688 4.859375 5 9.394531 7.6875 13.621094-19.546874-8.957031-36.726562-22.207031-50.328124-38.542969zm45.125-77.761718h49.289062v51.402343h-42.253906c-3.859375-15.957031-6.253906-33.316406-7.035156-51.402343zm21.09375 90.894531c-2.085938-4.171875-4.027344-8.558594-5.824219-13.132813h34.019531v47.042969c-10.203125-5.878906-20.011719-17.539063-28.195312-33.910156zm0 0" fill="#fff" style="fill: rgb(111, 148, 127);"></path><path d="m394.074219 303.664062-12.625 12.582032-73.359375-8.125-14.183594 14.171875 60.371094 21.265625-32.898438 33.035156h-22.628906l-6.078125 5.847656 28.492187 14.933594 14.761719 27.324219 5.613281-5.324219v-22.175781l33.339844-33.113281 21.160156 60.339843 14.175782-14.179687-8.292969-73.203125 12.765625-12.765625c5.820312-5.820313 13.808594-22.765625 7.984375-28.589844s-22.777344 2.152344-28.597656 7.976562zm0 0" fill="#fff" style="fill: rgb(111, 148, 127);"></path></g></svg>