<!-- icon666.com - MILLIONS vector ICONS FREE --><svg viewBox="0 0 58 58" xmlns="http://www.w3.org/2000/svg"><g id="Page-1" fill="none" fill-rule="evenodd"><g id="002---Visa-Approved" fill-rule="nonzero"><path id="Shape" d="m58 27v24c0 1.8565154-.7374979 3.6369928-2.0502525 4.9497475-1.3127547 1.3127546-3.0932321 2.0502525-4.9497475 2.0502525h-44c-1.85651543 0-3.63699282-.7374979-4.94974747-2.0502525-1.31275465-1.3127547-2.05025253-3.0932321-2.05025253-4.9497475v-24z" fill="#f9eab0" style="fill: rgb(236, 231, 214);"></path><path id="Shape" d="m58 7v22h-58v-22c0-3.86599325 3.13400675-7 7-7h44c1.8565154 0 3.6369928.73749788 4.9497475 2.05025253 1.3127546 1.31275465 2.0502525 3.09323204 2.0502525 4.94974747z" fill="#f5efca" style="fill: rgb(236, 231, 214);"></path><path id="Shape" d="m13 4c0-.55228475-.4477153-1-1-1h-5c-2.209139 0-4 1.790861-4 4v5c0 .5522847.44771525 1 1 1s1-.4477153 1-1v-5c0-1.1045695.8954305-2 2-2h5c.5522847 0 1-.44771525 1-1z" fill="#cbb292" style="fill: rgb(111, 98, 83);"></path><path id="Shape" d="m51 3h-5c-.5522847 0-1 .44771525-1 1s.4477153 1 1 1h5c1.1045695 0 2 .8954305 2 2v5c0 .5522847.4477153 1 1 1s1-.4477153 1-1v-5c0-2.209139-1.790861-4-4-4z" fill="#cbb292" style="fill: rgb(111, 98, 83);"></path><g fill="#3b97d3"><path id="Shape" d="m19.385 8.077c-.2447927-.10212961-.5201322-.10282212-.7654356-.00192517s-.4404725.29511671-.5425644.53992517l-4.077 9.785-4.077-9.785c-.13754725-.32975615-.44056896-.56108281-.79491978-.60684147-.35435083-.04575865-.70619644.10100252-.92300001.38500001s-.26562747.66208532-.12808021.99184146l5 12c.1553161.3725487.5193719.6152001.923.6152001s.7676839-.2426514.923-.6152001l5-12c.1021296-.24479274.1028221-.52013221.0019252-.76543558-.100897-.24530338-.2951167-.44047251-.5399252-.54256442z" fill="#3b97d3" style="fill: rgb(111, 148, 127);"></path><path id="Shape" d="m45.923 8.615c-.1553161-.37254873-.5193719-.61520005-.923-.61520005s-.7676839.24265132-.923.61520005l-5 12c-.2126296.5097588.0282412 1.0953703.538 1.308.5097588.2126296 1.0953704-.0282412 1.308-.538l1.41-3.385h5.334l1.41 3.385c.1375472.3297562.440569.5610828.7949198.6068415.3543508.0457586.7061964-.1010025.923-.385s.2656275-.6620854.1280802-.9918415zm-2.756 7.385 1.833-4.4 1.833 4.4z" fill="#3b97d3" style="fill: rgb(111, 148, 127);"></path><path id="Shape" d="m23 8c-.5522847 0-1 .44771525-1 1v12c0 .5522847.4477153 1 1 1s1-.4477153 1-1v-12c0-.55228475-.4477153-1-1-1z" fill="#3b97d3" style="fill: rgb(111, 148, 127);"></path><path id="Shape" d="m32.5 10c2.062 0 3.5 1.054 3.5 2 0 .5522847.4477153 1 1 1s1-.4477153 1-1c0-2.243-2.416-4-5.5-4s-5.5 1.757-5.5 4 2.416 4 5.5 4c2.062 0 3.5 1.054 3.5 2s-1.438 2-3.5 2-3.5-1.054-3.5-2c0-.5522847-.4477153-1-1-1s-1 .4477153-1 1c0 2.243 2.416 4 5.5 4s5.5-1.757 5.5-4-2.416-4-5.5-4c-2.063 0-3.5-1.054-3.5-2s1.437-2 3.5-2z" fill="#3b97d3" style="fill: rgb(111, 148, 127);"></path></g><path id="Shape" d="m29 36v15c0 1.6568542-1.3431458 3-3 3h-3v-2.5c0-3.5898509-2.9101491-6.5-6.5-6.5 1.9329966 0 3.5-1.5670034 3.5-3.5s-1.5670034-3.5-3.5-3.5-3.5 1.5670034-3.5 3.5 1.5670034 3.5 3.5 3.5c-3.5898509 0-6.5 2.9101491-6.5 6.5v2.5h-3c-1.65685425 0-3-1.3431458-3-3v-15c0-1.6568542 1.34314575-3 3-3h19c1.6568542 0 3 1.3431458 3 3z" fill="#f29c1f" style="fill: rgb(156, 171, 174);"></path><circle id="Oval" cx="16.5" cy="41.5" fill="#fdd7ad" r="3.5" style="fill: rgb(236, 231, 214);"></circle><path id="Shape" d="m23 51.5v2.5h-13v-2.5c0-3.5898509 2.9101491-6.5 6.5-6.5s6.5 2.9101491 6.5 6.5z" fill="#7d6599" style="fill: rgb(111, 98, 83);"></path><circle id="Oval" cx="43.5" cy="43.5" fill="#4fba6f" r="9.5" style="fill: rgb(111, 148, 127);"></circle><path id="Shape" d="m41 49c-.2651948-.0000566-.5195073-.1054506-.707-.293l-3-3c-.3789722-.3923789-.3735524-1.0160848.0121814-1.4018186s1.0094397-.3911536 1.4018186-.0121814l2.338 2.338 7.3-6.383c.2642286-.2601757.6507348-.3527752 1.004176-.2405814.3534413.1121938.6157794.4107578.6815769.7756945s-.0757502.7363206-.3677529.9648869l-8 7c-.1827864.1621861-.4186331.2518292-.663.252z" fill="#fff" style="fill: rgb(236, 231, 214);"></path></g></g></svg>