<!-- icon666.com - MILLIONS vector ICONS FREE --><svg id="Capa_1" enable-background="new 0 0 512 512" viewBox="0 0 512 512" xmlns="http://www.w3.org/2000/svg"><g><path d="m452.559 512h-393.118c-13.851 0-25.079-11.228-25.079-25.079v-214.73c0-9.513 7.712-17.225 17.225-17.225h408.826c9.513 0 17.225 7.712 17.225 17.225v214.73c0 13.851-11.228 25.079-25.079 25.079z" fill="#c1e9af" style="fill: rgb(236, 231, 214);"></path><path d="m460.413 257.034h-408.826c-9.513 0-17.225-7.712-17.225-17.225v-214.73c0-13.851 11.228-25.079 25.079-25.079h393.118c13.851 0 25.079 11.228 25.079 25.079v214.73c0 9.513-7.712 17.225-17.225 17.225z" fill="#e8edf2" style="fill: rgb(236, 231, 214);"></path><path d="m477.636 272.195v214.721c0 13.859-11.224 25.083-25.073 25.083h-20.67c13.849 0 25.073-11.224 25.073-25.083v-214.721c0-9.519-7.71-17.228-17.218-17.228h20.67c9.508-.001 17.218 7.709 17.218 17.228z" fill="#ade194" style="fill: rgb(236, 231, 214);"></path><path d="m477.636 25.084v214.721c0 9.519-7.71 17.228-17.218 17.228h-20.67c9.508 0 17.218-7.71 17.218-17.228v-214.721c-.001-13.86-11.224-25.084-25.073-25.084h20.67c13.849 0 25.073 11.224 25.073 25.084z" fill="#d9e7ec" style="fill: rgb(236, 231, 214);"></path><path d="m208.366 478.378h-128.435c-3.579 0-6.481-2.902-6.481-6.481v-176.827c0-3.579 2.902-6.481 6.481-6.481h128.435c3.579 0 6.481 2.902 6.481 6.481v176.827c0 3.579-2.901 6.481-6.481 6.481z" fill="#e8edf2" style="fill: rgb(236, 231, 214);"></path><path d="m214.846 295.067v176.833c0 3.576-2.904 6.48-6.48 6.48h-20.67c3.576 0 6.48-2.904 6.48-6.48v-176.833c0-3.576-2.904-6.48-6.48-6.48h20.67c3.576 0 6.48 2.904 6.48 6.48z" fill="#d9e7ec" style="fill: rgb(236, 231, 214);"></path><g><g><path d="m189.707 362.991v61.777c0 16.024-12.99 29.013-29.013 29.013h-33.091c-16.024 0-29.013-12.99-29.013-29.013v-61.777l45.559-34.643z" fill="#d8a69d" style="fill: rgb(111, 98, 83);"></path><path d="m189.708 362.987v61.783c0 16.019-12.992 29.012-29.012 29.012h-17.859c16.019 0 29.012-12.992 29.012-29.012v-75.364z" fill="#ae847f" style="fill: rgb(111, 98, 83);"></path></g><path d="m144.148 425.897c-23.657 0-42.836-19.178-42.836-42.836v-41.13h85.671v41.13c.001 23.657-19.177 42.836-42.835 42.836z" fill="#fed2a4" style="fill: rgb(236, 231, 214);"></path><path d="m186.985 341.932v41.129c0 23.654-19.18 42.835-42.835 42.835-3.063 0-6.045-.321-8.929-.929 19.368-4.108 33.905-21.314 33.905-41.906v-41.129z" fill="#ffbd86" style="fill: rgb(236, 231, 214);"></path><path d="m118.947 355.252c-4.268 6.158-9.018 10.627-20.358 15.427v-14.571c0-23.706 19.217-42.923 42.923-42.923h2.636 2.636c23.706 0 42.923 19.217 42.923 42.923v14.571c-32.062 0-57.26-17.942-62.559-31.752l-3.445 7.801c-1.317 2.981-2.898 5.844-4.756 8.524z" fill="#d8a69d" style="fill: rgb(111, 98, 83);"></path><path d="m189.708 356.112v14.564c-6.242 0-12.233-.679-17.859-1.884v-12.68c0-21.565-15.903-39.424-36.629-42.468 2.054-.295 4.152-.455 6.295-.455h5.268c23.709-.001 42.925 19.215 42.925 42.923z" fill="#ae847f" style="fill: rgb(111, 98, 83);"></path></g><g><g><path d="m438.55 312.346h-177.839c-4.142 0-7.5-3.358-7.5-7.5s3.358-7.5 7.5-7.5h177.839c4.143 0 7.5 3.358 7.5 7.5s-3.358 7.5-7.5 7.5z" fill="#97da7b" style="fill: rgb(111, 148, 127);"></path></g><g><path d="m311.116 351.665h-50.405c-4.142 0-7.5-3.358-7.5-7.5s3.358-7.5 7.5-7.5h50.405c4.143 0 7.5 3.358 7.5 7.5s-3.357 7.5-7.5 7.5z" fill="#97da7b" style="fill: rgb(111, 148, 127);"></path></g><g><path d="m438.55 351.665h-50.405c-4.143 0-7.5-3.358-7.5-7.5s3.357-7.5 7.5-7.5h50.405c4.143 0 7.5 3.358 7.5 7.5s-3.358 7.5-7.5 7.5z" fill="#97da7b" style="fill: rgb(111, 148, 127);"></path></g><g><path d="m311.116 390.983h-50.405c-4.142 0-7.5-3.358-7.5-7.5s3.358-7.5 7.5-7.5h50.405c4.143 0 7.5 3.358 7.5 7.5s-3.357 7.5-7.5 7.5z" fill="#97da7b" style="fill: rgb(111, 148, 127);"></path></g><g><path d="m438.55 390.983h-50.405c-4.143 0-7.5-3.358-7.5-7.5s3.357-7.5 7.5-7.5h50.405c4.143 0 7.5 3.358 7.5 7.5s-3.358 7.5-7.5 7.5z" fill="#97da7b" style="fill: rgb(111, 148, 127);"></path></g><g><path d="m388.145 430.302h-127.434c-4.142 0-7.5-3.358-7.5-7.5s3.358-7.5 7.5-7.5h127.434c4.143 0 7.5 3.358 7.5 7.5s-3.358 7.5-7.5 7.5z" fill="#97da7b" style="fill: rgb(111, 148, 127);"></path></g><g><path d="m388.145 469.621h-127.434c-4.142 0-7.5-3.358-7.5-7.5s3.358-7.5 7.5-7.5h127.434c4.143 0 7.5 3.358 7.5 7.5s-3.358 7.5-7.5 7.5z" fill="#97da7b" style="fill: rgb(111, 148, 127);"></path></g></g><g fill="#c5d3dd"><path d="m430.443 173.476-35.428-93.876c-.025-.069-.053-.138-.081-.206-1.496-3.636-5.001-5.983-8.932-5.983-.003 0-.007 0-.011 0-3.935.004-7.438 2.36-8.928 6.002-.023.056-.046.113-.067.169l-35.753 93.873c-1.475 3.871.469 8.204 4.34 9.678.878.335 1.78.493 2.668.493 3.021 0 5.87-1.84 7.01-4.833l7.064-18.548h47.092l6.992 18.527c1.462 3.875 5.792 5.833 9.665 4.369 3.876-1.463 5.832-5.79 4.369-9.665zm-62.404-28.231 17.941-47.105 17.777 47.105z" fill="#c5d3dd" style="fill: rgb(111, 148, 127);"></path><path d="m201.94 73.41c-4.142 0-7.5 3.358-7.5 7.5v95.214c0 4.142 3.358 7.5 7.5 7.5s7.5-3.358 7.5-7.5v-95.214c0-4.142-3.357-7.5-7.5-7.5z" fill="#c5d3dd" style="fill: rgb(111, 148, 127);"></path><path d="m291.648 122.23c-12.42-4.582-23.928-9.587-26.64-10.78-3.403-2.443-5.062-6.383-4.449-10.646.752-5.24 4.737-9.434 10.66-11.218 15.83-4.767 30.023 6.673 30.268 6.872 3.171 2.643 7.885 2.228 10.543-.936 2.665-3.17 2.256-7.901-.915-10.567-.824-.693-20.467-16.891-44.222-9.732-11.486 3.46-19.603 12.445-21.182 23.449-1.467 10.219 2.957 20.045 11.546 25.645.331.216.679.405 1.04.566.546.244 13.528 6.022 28.159 11.419 11.021 4.065 16.596 10.577 15.294 17.866-1.251 7.007-9.024 14.454-20.966 14.454-10.686 0-21.012-4.355-27.622-11.65-2.781-3.07-7.524-3.303-10.594-.521-3.069 2.782-3.303 7.524-.521 10.594 9.407 10.38 23.888 16.578 38.737 16.578 17.641 0 33.003-11.529 35.732-26.817 3.139-17.572-10.788-29.382-24.868-34.576z" fill="#c5d3dd" style="fill: rgb(111, 148, 127);"></path><path d="m158.64 73.967c-3.932-1.308-8.176.822-9.482 4.753l-26.116 78.616-27.383-78.886c-1.358-3.913-5.634-5.982-9.545-4.626-3.913 1.358-5.984 5.632-4.626 9.545l32.571 93.834c1.366 3.847 5.014 6.42 9.092 6.42h.064c4.104-.027 7.75-2.656 9.088-6.593l31.088-93.582c1.308-3.929-.82-8.175-4.751-9.481z" fill="#c5d3dd" style="fill: rgb(111, 148, 127);"></path></g></g></svg>