<!-- icon666.com - MILLIONS vector ICONS FREE --><svg viewBox="0 0 60 60" xmlns="http://www.w3.org/2000/svg"><g id="Page-1" fill="none" fill-rule="evenodd"><g id="002---Visa-Approved" fill-rule="nonzero"><g id="Icons" transform="translate(1 1)"><path id="Shape" d="m58 29v22c0 1.8565154-.7374979 3.6369928-2.0502525 4.9497475-1.3127547 1.3127546-3.0932321 2.0502525-4.9497475 2.0502525h-44c-1.85651543 0-3.63699282-.7374979-4.94974747-2.0502525-1.31275465-1.3127547-2.05025253-3.0932321-2.05025253-4.9497475v-22z" fill="#dfc49c" style="fill: rgb(236, 231, 214);"></path><path id="Shape" d="m58 7v22h-58v-22c0-3.86599325 3.13400675-7 7-7h44c1.8565154 0 3.6369928.73749788 4.9497475 2.05025253 1.3127546 1.31275465 2.0502525 3.09323204 2.0502525 4.94974747z" fill="#ffe0b2" style="fill: rgb(236, 231, 214);"></path><path id="Shape" d="m51 0h-3c3.8659932 0 7 3.13400675 7 7v22h3v-22c0-1.85651543-.7374979-3.63699282-2.0502525-4.94974747-1.3127547-1.31275465-3.0932321-2.05025253-4.9497475-2.05025253z" fill="#dfc49c" style="fill: rgb(236, 231, 214);"></path><path id="Shape" d="m29 36v15c0 1.6568542-1.3431458 3-3 3h-3v-2.5c0-3.5898509-2.9101491-6.5-6.5-6.5 1.9329966 0 3.5-1.5670034 3.5-3.5s-1.5670034-3.5-3.5-3.5-3.5 1.5670034-3.5 3.5 1.5670034 3.5 3.5 3.5c-3.5898509 0-6.5 2.9101491-6.5 6.5v2.5h-3c-1.65685425 0-3-1.3431458-3-3v-15c0-1.6568542 1.34314575-3 3-3h19c1.6568542 0 3 1.3431458 3 3z" fill="#02a9f4" style="fill: rgb(156, 171, 174);"></path><g fill="#0377bc"><path id="Shape" d="m13.5 45c-3.58985087 0-6.5 2.9101491-6.5 6.5v2.5h3v-2.5c.0025728-3.0099419 2.0712996-5.6243989 5-6.319-.4912642-.1184366-.9946641-.1791802-1.5-.181z" fill="#0377bc" style="fill: rgb(156, 171, 174);"></path><path id="Shape" d="m13 41.5c.005115-1.3470861.7828837-2.5716829 2-3.149-.4673157-.2281069-.9799922-.3480732-1.5-.351-1.9329966 0-3.5 1.5670034-3.5 3.5s1.5670034 3.5 3.5 3.5c.5200078-.0029268 1.0326843-.1228931 1.5-.351-1.2171163-.5773171-1.994885-1.8019139-2-3.149z" fill="#0377bc" style="fill: rgb(156, 171, 174);"></path><path id="Shape" d="m26 33h-3c1.6568542 0 3 1.3431458 3 3v15c0 1.6568542-1.3431458 3-3 3h3c1.6568542 0 3-1.3431458 3-3v-15c0-1.6568542-1.3431458-3-3-3z" fill="#0377bc" style="fill: rgb(156, 171, 174);"></path></g><circle id="Oval" cx="16.5" cy="41.5" fill="#ffe0b2" r="3.5" style="fill: rgb(236, 231, 214);"></circle><path id="Shape" d="m23 51.5v2.5h-13v-2.5c0-3.5898509 2.9101491-6.5 6.5-6.5s6.5 2.9101491 6.5 6.5z" fill="#ef314c"></path><path id="Shape" d="m16.5 45c-.5053359.0018198-1.0087358.0625634-1.5.181 2.9287004.6946011 4.9974272 3.3090581 5 6.319v2.5h3v-2.5c0-3.5898509-2.9101491-6.5-6.5-6.5z" fill="#bb193b"></path><circle id="Oval" cx="43.5" cy="43.5" fill="#60a917" r="9.5" style="fill: rgb(111, 148, 127);"></circle><path id="Shape" d="m43.5 34c-.5026507.0036063-1.0042235.0470759-1.5.13 4.6085577.730558 8.0016485 4.7038968 8.0016485 9.37s-3.3930908 8.639442-8.0016485 9.37c3.540697.5913279 7.1123347-.8636193 9.2319696-3.7607475 2.1196348-2.8971282 2.4252379-6.7416144.7899227-9.9372282-1.6353151-3.1956139-4.9322402-5.1965518-8.5218923-5.1720243z" fill="#549414" style="fill: rgb(111, 148, 127);"></path></g><g id="Layer_11" fill="#000"><path id="Shape" d="m52 0h-44c-4.41622192.00495988-7.99504012 3.58377808-8 8v44c.00495988 4.4162219 3.58377808 7.9950401 8 8h44c4.4162219-.0049599 7.9950401-3.5837781 8-8v-44c-.0049599-4.41622192-3.5837781-7.99504012-8-8zm0 58h-44c-3.31233757-.0033074-5.99669262-2.6876624-6-6v-21h56v21c-.0033074 3.3123376-2.6876624 5.9966926-6 6zm6-29h-56v-21c.00330738-3.31233757 2.68766243-5.99669262 6-6h44c3.3123376.00330738 5.9966926 2.68766243 6 6z" fill="#000"></path><path id="Shape" d="m14 5c0-.55228475-.4477153-1-1-1h-5c-2.209139 0-4 1.790861-4 4v5c0 .5522847.44771525 1 1 1s1-.4477153 1-1v-5c0-1.1045695.8954305-2 2-2h5c.5522847 0 1-.44771525 1-1z" fill="#000"></path><path id="Shape" d="m52 4h-5c-.5522847 0-1 .44771525-1 1s.4477153 1 1 1h5c1.1045695 0 2 .8954305 2 2v5c0 .5522847.4477153 1 1 1s1-.4477153 1-1v-5c0-2.209139-1.790861-4-4-4z" fill="#000"></path><path id="Shape" d="m20.385 9.077c-.2447927-.10212961-.5201322-.10282212-.7654356-.00192517s-.4404725.29511671-.5425644.53992517l-4.077 9.785-4.077-9.785c-.1375472-.32975615-.440569-.56108281-.7949198-.60684147-.35435081-.04575865-.70619642.10100252-.92299999.38500001s-.26562747.66208536-.12808021.99184146l5 12c.1553161.3725487.5193719.6152001.923.6152001s.7676839-.2426514.923-.6152001l5-12c.1021296-.2447927.1028221-.52013221.0019252-.76543558-.100897-.24530338-.2951167-.44047251-.5399252-.54256442z" fill="#000"></path><path id="Shape" d="m46.923 9.615c-.1553161-.37254873-.5193719-.61520005-.923-.61520005s-.7676839.24265132-.923.61520005l-5 12c-.2126296.5097588.0282412 1.0953703.538 1.308.5097588.2126296 1.0953704-.0282412 1.308-.538l1.41-3.385h5.334l1.41 3.385c.1375472.3297562.440569.5610828.7949198.6068415.3543508.0457586.7061964-.1010025.923-.385s.2656275-.6620854.1280802-.9918415zm-2.756 7.385 1.833-4.4 1.833 4.4z" fill="#000"></path><path id="Shape" d="m24 9c-.5522847 0-1 .44771525-1 1v12c0 .5522847.4477153 1 1 1s1-.4477153 1-1v-12c0-.55228475-.4477153-1-1-1z" fill="#000"></path><path id="Shape" d="m33.5 11c2.062 0 3.5 1.054 3.5 2 0 .5522847.4477153 1 1 1s1-.4477153 1-1c0-2.243-2.416-4-5.5-4s-5.5 1.757-5.5 4 2.416 4 5.5 4c2.062 0 3.5 1.054 3.5 2s-1.438 2-3.5 2-3.5-1.054-3.5-2c0-.5522847-.4477153-1-1-1s-1 .4477153-1 1c0 2.243 2.416 4 5.5 4s5.5-1.757 5.5-4-2.416-4-5.5-4c-2.063 0-3.5-1.054-3.5-2s1.437-2 3.5-2z" fill="#000"></path><path id="Shape" d="m27 33h-19c-2.209139 0-4 1.790861-4 4v15c0 2.209139 1.790861 4 4 4h19c2.209139 0 4-1.790861 4-4v-15c0-2.209139-1.790861-4-4-4zm-15 21v-1.5c0-3.0375661 2.4624339-5.5 5.5-5.5s5.5 2.4624339 5.5 5.5v1.5zm3-11.5c0-1.3807119 1.1192881-2.5 2.5-2.5s2.5 1.1192881 2.5 2.5-1.1192881 2.5-2.5 2.5-2.5-1.1192881-2.5-2.5zm14 9.5c0 1.1045695-.8954305 2-2 2h-2v-1.5c-.0021434-2.9197773-1.6985911-5.5729154-4.348-6.8 1.3056487-1.2797917 1.7072122-3.2223259 1.0160168-4.9149081-.6911953-1.6925822-2.3377429-2.7987347-4.1660168-2.7987347s-3.4748215 1.1061525-4.1660168 2.7987347c-.6911954 1.6925822-.2896319 3.6351164 1.0160168 4.9149081-2.6509696 1.2259151-4.3491347 3.8792981-4.352 6.8v1.5h-2c-1.1045695 0-2-.8954305-2-2v-15c0-1.1045695.8954305-2 2-2h19c1.1045695 0 2 .8954305 2 2z" fill="#000"></path><path id="Shape" d="m44.5 34c-5.7989899 0-10.5 4.7010101-10.5 10.5s4.7010101 10.5 10.5 10.5 10.5-4.7010101 10.5-10.5c-.006613-5.7962485-4.7037515-10.493387-10.5-10.5zm0 19c-4.6944204 0-8.5-3.8055796-8.5-8.5s3.8055796-8.5 8.5-8.5 8.5 3.8055796 8.5 8.5c-.0055104 4.692136-3.807864 8.4944896-8.5 8.5z" fill="#000"></path><path id="Shape" d="m49.341 41.248-7.3 6.383-2.338-2.338c-.3923789-.3789722-1.0160848-.3735524-1.4018186.0121814s-.3911536 1.0094397-.0121814 1.4018186l3 3c.3724417.3723689.9698586.3920495 1.366.045l8-7c.2920027-.2285663.4335504-.5999502.3677529-.9648869s-.3281356-.6635007-.6815769-.7756945c-.3534412-.1121938-.7399474-.0195943-1.004176.2405814z" fill="#000"></path></g></g></g></svg>