<?xml version="1.0"?>
<svg width="200" height="50" xmlns="http://www.w3.org/2000/svg" xmlns:svg="http://www.w3.org/2000/svg" version="1.1">
 <g class="layer">
  <title>Layer 1</title>
  <path d="m5,9.23q0,-0.3 0.43,-0.47t0.56,-0.16l0.81,-0.14q0.81,-0.13 1.65,-0.23t1.63,-0.18q2.79,-0.36 5.58,-0.7t5.62,-0.34q0.22,0 0.61,0.03t0.77,0.12t0.65,0.27t0.28,0.48q0,0.22 -0.21,0.39t-0.49,0.25t-0.59,0.11t-0.47,0.02l-0.38,0t-0.39,-0.08q-1.16,0 -2.29,0.11t-2.3,0.19q0.31,0.35 0.33,0.99t0.04,1.1q0,7.78 0.11,15.47t0.2,15.53l0,0.05q-0.72,0.64 -1.24,0.81t-1.04,0.18q-0.51,0 -1.03,-0.19t-1.24,-0.8l0,-0.05l0.18,-17.24q0,-1.72 -0.05,-3.78t-0.04,-4.19t0.07,-4.1t0.35,-3.45q-1.3,0.13 -2.75,0.4q-1.25,0.22 -2.39,0.22l-0.4,0q-0.09,0 -0.52,0.02t-0.87,-0.02t-0.82,-0.18t-0.36,-0.44zm21.72,16.92q0,-0.9 0.32,-1.51t1.35,-0.62q0.4,0 0.99,0.12t0.68,0.61q0.22,1.29 0.25,2.81t0.15,2.85q0.5,-0.98 1.3,-2.13t1.8,-2.11t2.19,-1.6t2.42,-0.64q0.09,0 0.33,0.07t0.45,0.19t0.25,0.27t-0.24,0.29q-0.09,0.26 -0.37,0.31t-0.51,0.06q-0.13,0 -0.41,-0.11q-1.63,0.86 -2.77,2.33t-1.87,3.26t-1.05,3.78t-0.33,3.88q0,0.94 -0.43,1.14t-1.38,0.2q-0.5,0 -1.06,-0.11t-0.78,-0.7q-0.4,-1.26 -0.65,-2.88t-0.38,-3.35t-0.19,-3.4t-0.06,-3.01zm15.62,6.15q0,-1.49 0.41,-2.87t1.21,-2.48t2.04,-1.73t2.82,-0.65q0.99,0 2.19,0.3t2.25,0.88t1.76,1.48t0.7,2.06q0,0.55 -0.19,0.84t-0.75,0.28l-0.25,-0.04q0.64,1.71 1.1,3.52t0.9,3.6q0.18,0.35 0.27,0.63t0.08,0.53q0,0.36 -0.19,0.59t-0.52,0.34t-0.66,0.15t-0.6,0.04q-0.95,0 -1.42,-0.32t-0.68,-0.91t-0.25,-1.28t-0.18,-1.44q-0.26,0.86 -0.69,1.67t-1.01,1.46t-1.38,1.03t-1.78,0.39q-1.45,0 -2.43,-0.84t-1.6,-2.05t-0.88,-2.6t-0.27,-2.58zm3.12,-0.3q0,0.81 0.11,1.71t0.36,1.78t0.65,1.66t0.99,1.37q1.08,-1.16 1.59,-2.83t0.92,-3.22t0.93,-2.66t1.59,-1.11q0.68,0 1.14,0.24q-0.22,-0.55 -0.72,-1.06t-1.13,-0.95t-1.3,-0.7t-1.26,-0.28q-0.18,0 -0.41,0.06t-0.36,0.01q-0.9,0.26 -1.49,0.91t-0.94,1.53t-0.52,1.8t-0.15,1.74zm15.92,-0.14q0,-1.58 0.41,-3.17t1.26,-2.86t2.19,-2.05t3.13,-0.79q0.77,0 1.69,0.18t1.7,0.6t1.32,1.05t0.54,1.6q0,0.59 -0.31,0.79t-0.81,0.19l-0.15,-0.22t-0.43,-0.56t-0.58,-0.72t-0.6,-0.65q-0.9,-0.9 -1.69,-0.97l-0.18,0q-0.65,0 -1.23,0.4q-0.63,0.48 -1.13,1.36t-0.82,1.87t-0.52,2t-0.18,1.67q0,0.9 0.2,2.05t0.71,2.19t1.25,1.74t1.94,0.7q1.08,0 1.96,-0.53t1.68,-1.17t1.57,-1.17t1.58,-0.51q0.36,0 0.72,0.08t0.36,0.46l0,0.14q-0.39,1.03 -1.34,1.82t-2.12,1.37t-2.44,0.87t-2.25,0.29q-1.85,0 -3.24,-0.61t-2.32,-1.66t-1.4,-2.53t-0.47,-3.25zm19.18,9.37l0.46,-0.55q-0.09,-3.7 -0.2,-7.37t-0.11,-7.29q0,-4.5 0.54,-8.71t1.06,-8.63q0.05,-0.26 0.26,-0.42t0.51,-0.28t0.63,-0.15t0.58,-0.05q0.35,0 0.88,0.13t1.06,0.77q0,0.22 0.03,0.39t0.03,0.38q0,1.67 -0.45,3.58t-0.6,3.67q-0.18,2.16 -0.24,4.27t-0.07,4.28l0.04,1.93q0.44,-0.54 1.26,-1.4t1.75,-1.66t1.89,-1.37t1.72,-0.58q1.16,0 1.61,0.66t0.45,1.74q0,0.99 -0.43,2.07t-1.12,2.09t-1.57,1.84t-1.73,1.21q1.16,1.45 2.38,2.77t2.67,2.48l0,0.5q-0.04,0.22 -0.27,0.33t-0.51,0.18t-0.54,0.1t-0.44,0.03q-1.07,0 -2.07,-0.64t-1.87,-1.56t-1.64,-1.95t-1.4,-1.8q0.13,2.52 0.29,5.04t0.17,5.04q0,0.31 -0.28,0.52t-0.64,0.32t-0.73,0.15t-0.62,0.04q-1.29,0 -1.83,-0.47t-0.91,-1.63zm4.5,-10.35q0.55,0 1.31,-0.48t1.57,-1.17t1.52,-1.49t1.13,-1.48t0.43,-1.13t-0.6,-0.38q-0.22,0 -0.9,0.63t-1.51,1.56t-1.67,2t-1.28,1.94zm13.75,8.37q0,-0.55 0.06,-1.11t0.07,-1.11l0,-0.35q0,-0.68 0.56,-0.86t1.15,-0.18q0.69,0 1.31,0.29t0.63,1.1q0.13,0.39 0.13,0.94l0,1.04q0,0.76 -0.54,1.06t-1.44,0.3q-0.63,0 -1.28,-0.23t-0.65,-0.89zm8.97,-12.45q-0.06,-0.74 0.09,-1.35t0.57,-1t1.37,-0.39q0.22,0 0.54,0.06t0.62,0.14t0.52,0.27t0.21,0.48l0,2.48q0.86,-0.99 1.87,-1.42t2.3,-0.42q0.99,0 1.96,0.45t1.82,1.19t1.49,1.65t0.91,1.8q0.17,-0.81 0.39,-1.98t0.65,-2.26t1.13,-1.84t1.87,-0.77q1.25,0 2.11,0.9t1.4,2.34t0.81,3.22t0.41,3.51t0.13,3.25l0,2.36q0,0.26 -0.2,0.43t-0.49,0.25t-0.62,0.11t-0.49,0.02q-0.69,0 -1.25,-0.21t-0.56,-1.06l0,-1.98t-0.04,-2.56t-0.15,-2.75t-0.29,-2.49t-0.45,-1.8t-0.67,-0.71q-0.55,0 -0.79,0.62t-0.41,1.56t-0.25,2t-0.24,2t-0.5,1.55t-0.93,0.6q-0.64,0 -1.12,-0.6t-0.96,-1.51t-0.94,-1.93t-1.04,-1.94q-0.58,-0.92 -1.24,-1.49q-0.59,-0.55 -1.34,-0.53l-0.11,0q-0.98,0.05 -1.54,0.72t-0.86,1.63t-0.36,2.08t-0.07,1.94q0,0.8 0.13,1.85q0.09,0.7 0.09,1.34q0,0.33 -0.02,0.64q-0.07,0.92 -0.5,1.55t-1.59,0.62q-0.44,0 -1.1,-0.08t-0.88,-0.6q-0.5,-0.9 -0.77,-2.27t-0.39,-2.84t-0.16,-2.9t-0.02,-2.47q0,-0.72 -0.05,-1.46zm27.71,6.41q0,-1.54 0.34,-3.63t1.15,-3.96t2.15,-3.17t3.35,-1.31q1.89,0 2.83,1.09t0.95,2.93q0,1.21 -0.46,2.65t-1.28,2.73t-1.98,2.14t-2.55,0.85l-0.57,-0.04q0,0.59 0.18,1.59t0.51,1.99t0.88,1.74t1.31,0.75q1.12,0 2.15,-0.91t1.96,-2t1.71,-1.99t1.45,-0.91q0.35,0 0.73,0.11t0.42,0.62q0,0.31 -0.17,0.5t-0.3,0.44q-0.68,1.17 -1.48,2.22t-1.81,1.92t-2.21,1.35t-2.65,0.49q-1.89,0 -3.14,-0.67t-2.02,-1.8t-1.11,-2.62t-0.34,-3.1zm3.93,-1.67l0.62,0.54q0.44,0.4 0.88,0.18t0.79,-0.8t0.65,-1.44t0.52,-1.76t0.34,-1.76t0.11,-1.42l0,-0.75t-0.06,-0.79t-0.23,-0.63t-0.52,-0.32q-0.11,-0.02 -0.2,-0.02q-0.74,0 -1.27,0.95q-0.57,1.05 -0.92,2.55t-0.51,3.09t-0.2,2.38z" fill="#000000" id="svg_1"/>
  <path fill="#" id="svg_2"/>
  <path d="m179.93,23.79c-1.56,0.61 -1.98,1.4 -2,2.3c-0.02,0.9 -0.34,1.69 -1,2.2c-0.76,0.59 -0.85,1.4 -1.02,2.31c-0.17,0.89 -1.28,0.78 -1.86,1.54c-0.52,0.68 0,1.82 -0.14,2.62c-0.14,0.88 -0.91,1.46 -0.97,2.32c-0.07,1.04 0,1.71 0,2.76l0,0.8l0,0.98" fill="none" id="svg_3"/>
 </g>

</svg>