<!-- icon666.com - MILLIONS vector ICONS FREE --><svg version="1.1" id="Capa_1" xmlns="http://www.w3.org/2000/svg" xmlns:xlink="http://www.w3.org/1999/xlink" x="0px" y="0px" viewBox="0 0 512 512" style="enable-background:new 0 0 512 512;" xml:space="preserve"><path style="fill: rgb(236, 231, 214);" d="M499.791,150.964L355.679,96.636c-7.751-2.923-16.405,0.993-19.327,8.744 c-2.922,7.752,0.993,16.405,8.744,19.327L479.5,175.375v299.932l-129-48.679v-271.97c0-8.284-6.716-15-15-15s-15,6.716-15,15v271.97 l-129,48.679V175.781l2.587-0.87c7.853-2.641,12.077-11.146,9.436-18.999c-2.641-7.853-11.146-12.077-18.999-9.436l-7.733,2.601 L22.796,90.966c-4.608-1.739-9.776-1.105-13.827,1.696C4.918,95.463,2.5,100.075,2.5,105v332c0,6.241,3.865,11.831,9.704,14.034 l158.984,59.994c0.001,0,0.002,0.001,0.004,0.001l0.012,0.004c0.508,0.192,1.024,0.345,1.544,0.48 c0.153,0.039,0.307,0.071,0.461,0.105c0.391,0.088,0.784,0.16,1.178,0.217c0.16,0.023,0.318,0.047,0.478,0.065 c0.502,0.055,1.004,0.09,1.506,0.094c0.036,0,0.072,0.005,0.108,0.005c0.006,0,0.013,0.001,0.019,0.001 c0.524,0,1.047-0.038,1.568-0.092c0.119-0.012,0.237-0.025,0.355-0.04c0.52-0.067,1.037-0.157,1.548-0.279 c0.081-0.019,0.161-0.044,0.242-0.065c0.478-0.122,0.95-0.268,1.416-0.438c0.056-0.021,0.113-0.031,0.169-0.052L335.5,453.032 l153.704,58.002c1.716,0.647,3.51,0.966,5.295,0.966c3.007,0,5.99-0.904,8.532-2.662c4.051-2.801,6.469-7.413,6.469-12.338V165 C509.5,158.757,505.633,153.167,499.791,150.964z M32.5,126.693l129,48.679v299.935l-129-48.679V126.693z" fill="#61DE56"></path><g><path style="fill: rgb(236, 231, 214);" d="M260.5,286.553c-5.113,0-9.874-2.604-12.632-6.911c-14.555-22.727-26.6-41.235-37.227-57.564 c-24.139-37.091-37.436-57.523-45.371-74.077c-9.208-19.208-10.493-32.412-9.601-48.727C158.666,43.604,204.71,0,260.5,0 c57.897,0,105,47.103,105,105c0,32.671-8.97,46.412-52.073,112.438c-10.783,16.519-24.204,37.077-40.295,62.204 C270.374,283.948,265.613,286.553,260.5,286.553z M260.5,30c-39.85,0-72.739,31.142-74.875,70.897c0,0.005,0,0.009-0.001,0.014 c-1.359,24.865,2.969,32.287,50.162,104.802c7.081,10.88,15.373,23.623,24.716,38.103c10.68-16.545,19.942-30.732,27.805-42.777 C331.503,134.869,335.5,128.085,335.5,105C335.5,63.645,301.855,30,260.5,30z M170.646,100.093h0.01H170.646z" fill="#FD003A"></path><path style="fill: rgb(236, 231, 214);" d="M260.5,150c-24.813,0-45-20.187-45-45s20.187-45,45-45s45,20.187,45,45S285.313,150,260.5,150z M260.5,90c-8.271,0-15,6.729-15,15s6.729,15,15,15s15-6.729,15-15S268.771,90,260.5,90z" fill="#FD003A"></path></g></svg>