<!-- icon666.com - MILLIONS vector ICONS FREE --><svg id="Layer_1" viewBox="0 0 512 512" xmlns="http://www.w3.org/2000/svg" data-name="Layer 1"><path d="m96.734 512h318.532a43.566 43.566 0 0 0 43.517-43.518v-117.69a128.552 128.552 0 0 0 -128.407-128.408h-148.752a128.552 128.552 0 0 0 -128.407 128.408v117.69a43.566 43.566 0 0 0 43.517 43.518zm-11.517-161.208a96.516 96.516 0 0 1 96.407-96.408h148.752a96.516 96.516 0 0 1 96.407 96.408v117.69a11.531 11.531 0 0 1 -11.517 11.518h-48.6v-110a16 16 0 0 0 -32 0v110h-157.33v-110a16 16 0 1 0 -32 0v110h-48.6a11.531 11.531 0 0 1 -11.517-11.518zm170.783-144.57a103.111 103.111 0 1 0 -103.111-103.111 103.228 103.228 0 0 0 103.111 103.111zm0-174.222a71.111 71.111 0 1 1 -71.111 71.111 71.191 71.191 0 0 1 71.111-71.111z" fill="#000000" style="fill: rgb(236, 231, 214);"></path></svg>