<!-- icon666.com - MILLIONS vector ICONS FREE --><svg id="Expanded" viewBox="0 0 70 70" xmlns="http://www.w3.org/2000/svg"><path d="m42.167 34.46a3.0956 3.0956 0 0 1 -2.86-1.8955 81.9809 81.9809 0 0 1 -4.89-16.0577 3.1064 3.1064 0 0 1 2.165-3.5668l4.9248-1.5a3.1134 3.1134 0 0 1 3.7852 1.7559 81.9574 81.9574 0 0 1 4.888 16.0585 3.1068 3.1068 0 0 1 -2.1641 3.5674l-4.9248 1.4995a3.1656 3.1656 0 0 1 -.9241.1387zm.2588-21.1573a1.1546 1.1546 0 0 0 -.3369.05l-4.9248 1.4995a1.1271 1.1271 0 0 0 -.7841 1.2718 79.9543 79.9543 0 0 0 4.77 15.6646 1.1231 1.1231 0 0 0 1.3574.62l4.9258-1.5a1.1262 1.1262 0 0 0 .7832-1.2715 79.9769 79.9769 0 0 0 -4.7686-15.665 1.1029 1.1029 0 0 0 -1.022-.6694z" fill="#000000" style="fill: rgb(236, 231, 214);"></path><path d="m8.8076 44.6167a3.0957 3.0957 0 0 1 -2.8613-1.8955 81.985 81.985 0 0 1 -4.89-16.0576 3.1065 3.1065 0 0 1 2.1651-3.5674l4.9248-1.5a3.1108 3.1108 0 0 1 3.7851 1.7558 81.9438 81.9438 0 0 1 4.8877 16.0586 3.1057 3.1057 0 0 1 -2.164 3.5674l-4.9239 1.5a3.1622 3.1622 0 0 1 -.9235.1387zm.2578-21.1567a1.1546 1.1546 0 0 0 -.3369.05l-4.9248 1.5a1.1272 1.1272 0 0 0 -.7837 1.2708 79.9581 79.9581 0 0 0 4.77 15.6645 1.1255 1.1255 0 0 0 1.3594.62l4.9238-1.5a1.1258 1.1258 0 0 0 .7832-1.2715 79.97 79.97 0 0 0 -4.7685-15.665 1.103 1.103 0 0 0 -1.0225-.6688z" fill="#000000" style="fill: rgb(236, 231, 214);"></path><path d="m14.7236 35.7275a1 1 0 0 1 -.2685-1.9633c9.3574-2.6187 14.4463-4.168 23.6738-7.2076a1 1 0 1 1 .625 1.8995c-9.2607 3.0512-14.3682 4.6059-23.76 7.2338a.9923.9923 0 0 1 -.2703.0376z" fill="#000000" style="fill: rgb(236, 231, 214);"></path><path d="m12.8037 29.418a1 1 0 0 1 -.3144-1.95c9.2529-3.0606 14.3613-4.6158 23.7627-7.2349a1 1 0 0 1 .5371 1.9268c-9.3662 2.6088-14.4541 4.1582-23.6709 7.2065a.9991.9991 0 0 1 -.3145.0516z" fill="#000000" style="fill: rgb(236, 231, 214);"></path><path d="m65.4521 58.6963h-.0029l-5.1474-.0044a3.1072 3.1072 0 0 1 -3.1075-2.7852 81.9974 81.9974 0 0 1 .0137-16.7856 3.1069 3.1069 0 0 1 3.1094-2.78h.0026l5.1485.0039a3.1064 3.1064 0 0 1 3.1064 2.7861 81.9894 81.9894 0 0 1 -.0137 16.7847 3.1069 3.1069 0 0 1 -3.1091 2.7805zm-5.1347-20.355a1.1244 1.1244 0 0 0 -1.1192.9863 79.87 79.87 0 0 0 -.0136 16.3755 1.125 1.125 0 0 0 1.1181.9888l5.1485.0044h.0009a1.1244 1.1244 0 0 0 1.1192-.9868 79.8724 79.8724 0 0 0 .0137-16.375 1.1237 1.1237 0 0 0 -1.1182-.9893l-5.1484-.0039z" fill="#000000" style="fill: rgb(236, 231, 214);"></path><path d="m30.58 58.6675h-.003l-5.147-.0044a3.1066 3.1066 0 0 1 -3.1074-2.7861 81.9816 81.9816 0 0 1 .0136-16.7847 3.107 3.107 0 0 1 3.1094-2.78h.0029l5.1485.0044a3.1063 3.1063 0 0 1 3.1064 2.7861 81.9824 81.9824 0 0 1 -.0134 16.7844 3.107 3.107 0 0 1 -3.11 2.7803zm-5.1485-2.0044 5.1475.0044h.001a1.1243 1.1243 0 0 0 1.1191-.9868 79.8725 79.8725 0 0 0 .0137-16.375 1.1237 1.1237 0 0 0 -1.1182-.9893l-5.1484-.0044h-.001a1.1243 1.1243 0 0 0 -1.1191.9868 79.87 79.87 0 0 0 -.0137 16.3755 1.1247 1.1247 0 0 0 1.1191.9888z" fill="#000000" style="fill: rgb(236, 231, 214);"></path><path d="m45.7666 51.9717c-3.8789 0-7.7246-.0586-12.7363-.1768a1 1 0 0 1 -.9766-1.0229.9746.9746 0 0 1 1.0234-.9761c9.7129.2285 15.0313.2334 24.7461.02a.9906.9906 0 0 1 1.0215.978 1.0007 1.0007 0 0 1 -.9785 1.022c-4.7362.1035-8.4336.1558-12.0996.1558z" fill="#000000" style="fill: rgb(236, 231, 214);"></path><path d="m57.85 45.2207-.0244-.0005c-9.7109-.2407-15.03-.2441-24.7432-.021a.985.985 0 0 1 -1.0234-.9765 1 1 0 0 1 .9762-1.0227c9.7548-.2241 15.0937-.2207 24.8388.021a1 1 0 0 1 -.0244 1.9995z" fill="#000000" style="fill: rgb(236, 231, 214);"></path></svg>